<?xml version="1.0" standalone="no"?>
<!DOCTYPE svg PUBLIC "-//W3C//DTD SVG 20010904//EN"
 "http://www.w3.org/TR/2001/REC-SVG-20010904/DTD/svg10.dtd">
<svg version="1.0" xmlns="http://www.w3.org/2000/svg"
 width="848.000000pt" height="848.000000pt" viewBox="0 0 848.000000 848.000000"
 preserveAspectRatio="xMidYMid meet">
<metadata>
Created by potrace 1.11, written by Peter Selinger 2001-2013
</metadata>
<g transform="translate(0.000000,848.000000) scale(0.100000,-0.100000)"
fill="#000000" stroke="none">
<path d="M2157 7634 c-1 -1 -67 -4 -147 -8 -80 -3 -156 -8 -170 -11 -14 -3
-38 -7 -55 -10 -16 -3 -48 -9 -70 -15 -22 -6 -47 -12 -56 -15 -44 -10 -125
-41 -131 -50 -4 -5 -8 -7 -8 -2 0 4 -15 0 -32 -10 -18 -9 -35 -18 -38 -19 -3
-1 -15 -5 -27 -9 -13 -4 -23 -11 -23 -16 0 -5 -9 -9 -20 -9 -11 0 -20 -5 -20
-11 0 -6 -9 -9 -20 -6 -11 3 -18 2 -15 -3 6 -9 -14 -27 -35 -32 -8 -2 -24 -12
-37 -23 -46 -41 -57 -50 -69 -55 -24 -10 -209 -197 -239 -241 -60 -91 -73
-108 -78 -103 -3 3 -4 -3 -4 -13 1 -10 -4 -17 -11 -15 -8 1 -11 -2 -7 -9 4 -6
-2 -24 -13 -39 -12 -15 -24 -40 -28 -54 -3 -14 -10 -29 -15 -32 -5 -3 -9 -14
-9 -25 0 -10 -4 -19 -10 -19 -5 0 -12 -16 -16 -35 -3 -19 -10 -35 -16 -35 -5
0 -6 -4 -3 -10 3 -5 0 -20 -7 -32 -6 -13 -11 -31 -9 -40 1 -10 -2 -18 -7 -18
-6 0 -8 -9 -5 -20 3 -11 1 -20 -4 -20 -5 0 -10 -17 -11 -37 -1 -36 -8 -78 -12
-78 -3 0 -8 -64 -11 -162 -2 -53 -8 -93 -14 -93 -6 0 -6 -3 0 -8 14 -9 14 -75
1 -84 -7 -5 -7 -8 -1 -8 7 0 10 -63 11 -174 0 -118 -4 -173 -11 -168 -6 4 -6
1 1 -9 15 -20 16 -61 1 -52 -9 5 -9 3 -1 -8 15 -20 16 -61 1 -52 -9 5 -9 3 -1
-8 14 -19 16 -61 2 -53 -7 5 -8 2 -2 -7 14 -23 16 -51 2 -43 -7 5 -8 3 -2 -7
14 -23 16 -51 2 -43 -7 5 -8 3 -2 -7 13 -20 12 -1079 -1 -1071 -6 3 -6 0 1 -9
14 -19 16 -61 2 -53 -7 5 -8 2 -3 -7 14 -22 15 -180 1 -172 -8 5 -8 3 0 -8 15
-20 16 -61 1 -52 -9 5 -9 3 -1 -8 15 -20 16 -61 1 -52 -9 5 -9 3 -1 -8 12 -15
13 -57 1 -75 -3 -6 -3 -14 1 -18 12 -12 10 -186 -2 -179 -8 5 -8 3 0 -8 14
-19 16 -61 2 -53 -7 5 -8 2 -3 -7 14 -22 15 -180 1 -172 -8 5 -8 3 0 -8 15
-20 16 -61 1 -52 -9 5 -9 3 -1 -8 14 -19 16 -61 2 -53 -7 5 -8 2 -2 -7 13 -20
12 -999 -1 -991 -6 3 -6 0 1 -9 15 -20 16 -61 1 -52 -9 5 -9 3 -1 -8 15 -20
16 -61 1 -52 -9 5 -9 3 -1 -8 14 -19 16 -61 2 -53 -7 5 -8 2 -2 -7 7 -11 14
-113 15 -213 0 -11 4 -27 10 -38 7 -13 6 -18 -3 -18 -8 0 -9 -3 -3 -8 6 -4 11
-18 13 -32 5 -45 7 -55 15 -67 5 -7 6 -13 3 -13 -3 0 1 -21 9 -47 18 -59 19
-76 3 -67 -8 4 -10 3 -5 -2 5 -5 14 -9 20 -9 7 0 12 -5 12 -12 0 -6 3 -14 7
-18 4 -4 4 -13 1 -21 -3 -8 0 -14 6 -14 6 0 11 -5 11 -11 0 -15 60 -138 84
-173 13 -20 15 -27 5 -22 -7 4 -5 0 5 -8 11 -9 16 -16 11 -16 -4 0 2 -8 13
-19 12 -10 22 -22 22 -27 0 -4 10 -19 23 -32 12 -14 15 -21 7 -17 -8 5 0 -6
18 -23 19 -17 31 -36 27 -42 -3 -6 0 -7 9 -4 11 4 16 0 16 -10 0 -9 7 -16 17
-16 9 0 13 -3 10 -7 -4 -3 9 -19 28 -36 19 -16 32 -33 29 -38 -3 -5 -2 -9 3
-8 21 4 33 -2 33 -16 0 -8 6 -15 13 -15 6 0 31 -17 54 -39 23 -21 46 -35 49
-32 4 3 4 -2 1 -11 -4 -11 -2 -15 7 -12 7 3 20 -2 29 -10 8 -8 18 -12 22 -8 5
4 5 -2 1 -12 -5 -16 -4 -17 9 -6 8 7 15 8 15 3 0 -5 16 -17 36 -26 19 -10 33
-21 30 -26 -3 -4 5 -6 17 -4 12 2 30 -2 41 -10 18 -13 18 -14 0 -14 -11 0 -26
5 -34 11 -13 10 -13 9 -1 -6 9 -12 22 -16 39 -13 13 2 37 -2 52 -10 15 -8 30
-11 34 -8 3 4 6 -2 6 -13 0 -10 4 -15 8 -9 10 14 32 17 32 4 0 -5 5 -7 10 -4
6 3 13 -1 16 -10 5 -12 9 -13 14 -5 5 8 12 7 24 -5 9 -9 16 -12 16 -7 0 6 9 8
21 5 13 -4 19 -12 16 -23 -2 -9 1 -17 8 -17 7 0 11 6 8 13 -3 9 2 11 17 7 14
-4 19 -11 16 -22 -6 -15 -5 -15 6 0 7 9 24 15 38 13 14 -1 29 -3 33 -3 5 -1 6
-5 3 -9 -3 -5 1 -9 9 -9 8 0 12 4 9 9 -9 14 14 9 30 -8 9 -8 16 -11 16 -5 0 6
19 9 45 8 25 -1 45 -5 45 -10 0 -4 4 -5 10 -2 5 3 10 0 11 -7 0 -7 4 -4 9 7 5
11 9 14 9 8 1 -7 6 -13 12 -13 5 0 8 4 5 8 -6 10 92 7 124 -3 16 -5 20 -4 15
5 -6 9 -3 9 14 1 12 -7 21 -8 21 -2 0 5 8 8 18 6 9 -2 17 -4 17 -5 0 -1 12 -3
28 -5 15 -2 25 0 23 4 -6 9 73 6 104 -4 16 -5 20 -4 15 5 -6 9 -3 9 14 1 12
-7 21 -8 21 -2 0 9 44 6 61 -5 4 -2 10 0 14 6 4 6 11 8 16 4 6 -3 3 -11 -7
-18 -13 -10 -14 -15 -4 -21 7 -5 11 -4 8 1 -7 13 24 39 45 39 10 0 22 -7 27
-15 8 -13 10 -13 10 1 0 21 70 20 88 -1 8 -8 11 -10 8 -4 -9 18 22 25 32 7 8
-13 10 -13 16 3 7 17 9 15 21 -11 l14 -30 -4 30 c-3 17 -2 24 1 17 3 -6 11 -9
17 -5 18 11 36 12 43 2 3 -5 14 -4 26 2 15 8 19 8 14 0 -4 -6 -2 -11 3 -11 6
0 11 6 11 13 0 8 4 7 10 -3 6 -9 13 -11 18 -5 12 16 32 16 38 0 5 -12 8 -12
22 2 16 15 17 15 20 0 2 -10 8 -15 13 -11 5 3 7 9 5 12 -2 4 7 7 21 6 13 0 29
-7 34 -15 7 -12 9 -11 9 2 0 21 70 20 88 -1 8 -8 11 -9 7 -3 -8 17 30 21 80 9
19 -5 25 -3 20 5 -6 8 -2 8 14 0 12 -7 21 -8 21 -2 0 5 12 8 26 5 35 -6 38 -7
44 -4 21 8 63 3 67 -7 4 -10 9 -9 19 4 11 15 13 15 14 2 0 -8 7 -24 16 -35 14
-18 15 -18 4 4 -6 13 -9 28 -6 35 3 9 5 8 5 -1 1 -8 6 -10 14 -5 18 11 36 12
43 2 3 -5 14 -4 26 2 15 8 19 8 14 0 -4 -6 -2 -11 3 -11 6 0 11 6 11 13 0 8 4
7 10 -3 6 -9 13 -11 18 -5 12 16 32 16 38 0 5 -12 8 -12 22 2 16 15 17 15 20
0 2 -10 8 -15 13 -11 5 3 7 9 5 12 -2 4 7 7 21 6 13 0 29 -7 34 -15 7 -11 9
-11 9 4 0 20 1 20 33 8 14 -6 28 -7 31 -4 12 12 58 9 63 -4 4 -10 9 -9 19 4
11 15 13 15 14 2 0 -8 7 -24 16 -35 14 -18 15 -18 4 4 -6 13 -9 28 -6 35 3 9
5 8 5 -1 1 -8 6 -10 14 -5 18 11 36 12 43 2 3 -5 14 -4 26 2 15 8 19 8 14 0
-4 -6 -2 -11 3 -11 6 0 11 6 11 13 0 8 4 7 10 -3 6 -9 13 -11 18 -5 12 16 32
16 38 0 5 -12 8 -12 22 2 16 15 17 15 20 0 2 -10 8 -15 13 -11 5 3 7 9 5 12
-2 4 7 7 21 6 13 0 29 -7 34 -15 7 -12 9 -11 9 3 0 18 20 19 41 2 22 -17 46
-27 27 -11 -10 8 -15 17 -11 20 3 4 12 2 20 -4 10 -9 13 -8 13 2 0 11 2 11 10
-1 9 -13 11 -13 20 0 6 10 13 11 18 5 9 -13 64 -16 56 -3 -4 6 3 5 15 -1 12
-7 21 -8 21 -2 0 9 44 6 61 -5 4 -2 10 -1 13 4 7 12 57 7 65 -7 6 -9 10 -8 15
6 7 16 9 14 21 -12 l14 -30 -4 30 c-3 17 -2 24 1 17 3 -6 11 -9 17 -5 18 11
36 12 43 2 3 -5 14 -4 26 2 15 8 19 8 14 0 -4 -6 -2 -11 3 -11 6 0 11 6 11 13
0 8 4 7 10 -3 6 -9 13 -11 18 -5 12 16 32 16 38 0 5 -12 8 -12 22 2 16 15 17
15 20 0 2 -10 8 -15 13 -11 5 3 7 9 5 12 -2 4 7 7 21 6 13 0 29 -7 34 -15 7
-12 9 -12 9 1 0 11 11 15 40 15 22 0 40 -2 40 -5 0 -3 9 -6 20 -7 12 -1 18 3
14 9 -4 6 2 6 15 -1 12 -7 21 -8 21 -2 0 9 44 6 61 -5 4 -2 10 -1 13 4 7 12
57 7 65 -7 6 -9 10 -8 15 6 7 16 9 14 21 -12 l14 -30 -5 30 c-4 21 -3 26 4 16
6 -8 12 -9 16 -3 7 11 24 11 44 -2 7 -4 20 -2 29 6 12 9 15 9 9 1 -4 -7 -2
-13 3 -13 6 0 11 6 11 13 0 8 4 7 10 -3 6 -9 13 -11 18 -5 12 16 32 16 38 0 5
-12 8 -12 22 2 16 15 17 15 20 0 2 -10 8 -15 13 -11 5 3 7 9 5 12 -2 4 7 7 21
6 13 0 29 -7 34 -15 7 -12 9 -11 9 2 0 21 70 20 88 -1 8 -8 11 -9 7 -2 -8 16
30 20 80 8 19 -5 25 -3 20 5 -6 8 -2 8 14 0 12 -7 21 -8 21 -2 0 9 33 7 74 -5
10 -4 16 -2 13 3 -6 10 69 9 103 -2 16 -5 20 -4 15 5 -6 9 -3 9 13 1 15 -8 21
-8 24 0 3 8 10 6 21 -5 13 -13 17 -14 17 -4 0 9 12 14 35 14 19 0 35 -4 35 -8
0 -4 5 -8 11 -8 5 0 8 4 4 9 -3 6 3 10 12 10 26 0 108 9 108 11 0 1 12 3 28 5
19 3 25 0 21 -8 -3 -7 2 -3 11 8 12 14 19 16 22 8 3 -10 8 -9 20 2 17 18 37
20 27 3 -4 -6 -3 -8 4 -4 5 3 12 1 14 -6 3 -7 7 -5 11 6 4 10 3 15 -3 11 -6
-3 -10 -1 -10 4 0 10 20 15 48 12 6 -1 12 3 12 8 0 5 12 7 27 5 15 -3 24 -2
20 2 -9 9 52 36 64 28 5 -3 9 0 9 7 0 7 3 9 7 6 3 -4 12 1 20 11 9 10 12 11 7
2 -6 -12 -4 -12 12 1 21 18 55 33 67 31 4 -1 7 6 7 15 0 13 3 14 12 5 8 -8 8
-15 -1 -25 -9 -12 -8 -16 3 -20 11 -4 13 -1 9 10 -5 11 -3 14 6 8 10 -6 11 -3
2 13 -15 29 -14 31 12 25 16 -3 18 -2 8 5 -10 8 -6 11 18 17 17 4 29 11 25 16
-3 5 8 9 25 9 16 0 32 4 35 9 4 5 -4 7 -16 4 -23 -4 -23 -4 -3 12 18 14 21 14
33 -2 12 -16 12 -15 6 12 -4 17 -3 27 1 23 4 -4 20 5 36 20 95 89 116 112 110
119 -3 4 3 1 13 -7 11 -8 17 -10 13 -3 -12 20 3 41 26 36 17 -4 19 -3 7 6 -15
10 -12 16 53 83 9 10 17 22 17 28 0 5 8 10 18 10 14 0 15 2 2 10 -13 9 -13 10
0 11 8 1 22 1 30 0 12 -1 12 0 2 7 -14 9 -5 45 9 36 5 -3 6 2 3 10 -8 21 5 20
23 -1 14 -16 14 -15 1 6 -12 21 -11 29 10 70 13 25 27 45 32 44 5 -2 7 4 4 12
-4 8 -1 15 5 15 6 0 8 7 4 17 -4 9 -2 14 3 11 5 -4 10 6 11 20 0 15 6 28 12
30 6 2 8 8 5 13 -3 6 -1 15 4 22 6 7 11 17 11 22 1 6 5 10 10 10 5 0 13 4 18
9 5 5 3 6 -4 2 -17 -10 -21 41 -5 54 4 3 7 10 7 15 3 50 19 106 30 101 11 -4
10 1 0 21 -10 19 -11 33 -3 52 5 14 9 52 9 84 0 42 3 56 12 50 7 -4 6 0 -2 10
-9 12 -10 17 -2 17 7 0 9 5 4 13 -4 6 -8 55 -8 107 0 73 3 98 15 108 8 8 10
11 3 8 -18 -9 -25 11 -13 34 6 11 7 20 3 20 -4 0 -9 11 -9 24 -1 17 2 23 12
19 8 -3 12 -9 9 -13 -3 -5 -1 -11 4 -14 5 -4 8 1 7 10 -1 8 -9 20 -17 24 -21
13 -21 190 1 208 8 8 10 11 3 8 -18 -9 -25 11 -13 34 6 11 7 20 3 20 -4 0 -9
11 -9 24 -1 17 2 23 12 19 8 -3 12 -9 9 -13 -3 -5 -1 -11 4 -14 5 -4 8 1 7 10
-1 8 -9 20 -17 24 -21 13 -21 190 1 208 8 8 10 11 3 8 -18 -9 -25 11 -13 34 6
11 7 20 3 20 -4 0 -9 11 -9 24 -1 17 2 23 12 19 8 -3 12 -9 9 -13 -3 -5 -1
-11 4 -14 5 -4 8 1 7 10 -1 8 -9 20 -17 24 -21 13 -21 190 1 208 13 10 13 12
0 10 -9 -2 -15 6 -15 25 -1 21 3 26 15 22 13 -4 13 -4 0 8 -23 18 -25 41 -3
33 16 -5 16 -4 3 6 -16 14 -20 74 -5 97 5 9 4 12 -2 8 -17 -11 -10 56 7 71 13
10 13 12 0 10 -9 -2 -15 6 -16 20 -1 12 3 22 9 22 5 0 5 6 -2 14 -14 17 -11
37 9 54 13 11 13 12 0 10 -25 -5 -20 92 5 117 12 11 13 14 3 6 -15 -12 -18
-12 -19 0 -1 8 -2 23 -3 34 0 11 3 28 7 39 6 11 5 16 -1 12 -11 -7 -9 44 3 64
5 8 4 11 -2 7 -17 -11 -10 56 7 71 11 9 12 12 1 10 -7 -2 -15 7 -17 20 -2 12
1 22 7 22 8 0 8 4 0 14 -14 17 -11 37 9 54 13 11 13 12 0 10 -25 -5 -20 92 5
117 12 11 13 14 3 6 -15 -12 -18 -12 -19 0 -1 8 -2 23 -3 34 0 11 3 28 7 39 6
11 5 16 -1 12 -11 -7 -9 44 3 64 5 8 4 11 -2 7 -17 -11 -10 56 7 71 11 9 12
12 1 10 -7 -2 -15 7 -17 20 -2 12 1 22 7 22 8 0 8 4 0 14 -14 17 -11 37 9 54
13 11 13 12 0 10 -25 -5 -20 92 5 117 12 11 13 14 3 6 -15 -12 -18 -12 -19 0
-1 8 -2 23 -3 34 0 11 3 28 7 39 6 11 5 16 -1 12 -11 -7 -9 44 3 64 5 8 4 11
-2 7 -17 -11 -10 56 7 71 11 9 12 12 1 10 -7 -2 -15 7 -17 20 -2 12 1 22 7 22
8 0 8 4 0 14 -14 17 -11 37 9 54 13 11 13 12 0 10 -25 -5 -20 92 5 117 12 11
13 14 3 6 -15 -12 -18 -12 -19 0 -1 8 -2 23 -3 34 0 11 3 28 7 39 6 11 5 16
-1 12 -11 -7 -9 44 3 64 5 8 4 11 -2 7 -17 -11 -10 56 7 71 11 9 12 12 1 10
-7 -2 -15 7 -17 20 -2 12 1 22 7 22 8 0 8 4 0 14 -14 17 -11 37 9 54 13 11 13
12 0 10 -25 -5 -20 92 5 117 12 11 13 14 3 6 -15 -12 -18 -12 -19 0 -1 8 -2
23 -3 34 0 11 3 28 7 39 5 10 5 16 0 13 -4 -3 -8 30 -8 73 0 44 3 74 7 67 5
-8 8 -8 8 -1 0 6 -3 14 -6 17 -13 12 -12 67 0 60 6 -3 6 0 -1 8 -23 24 -14 33
10 11 25 -24 37 -28 37 -12 0 5 -6 9 -12 7 -7 -1 -12 4 -10 11 1 8 -2 11 -7 8
-20 -12 -27 24 -26 136 0 65 -2 118 -5 118 -3 0 -5 21 -4 48 0 26 -2 52 -6 57
-3 6 -7 24 -9 40 -1 17 -11 61 -22 98 -11 38 -21 77 -22 88 -1 10 -5 19 -9 19
-4 0 -8 9 -8 19 0 11 -4 23 -10 26 -15 9 -12 27 3 19 6 -4 2 3 -10 15 -25 24
-30 36 -10 25 6 -4 2 4 -11 18 -13 14 -24 35 -25 47 -1 11 -5 21 -9 21 -4 0
-8 7 -8 15 0 8 -4 15 -10 15 -5 0 -10 7 -10 16 0 10 5 14 16 10 9 -3 12 -2 9
5 -4 5 -15 7 -26 4 -12 -4 -19 -2 -19 7 0 14 -103 156 -145 200 -15 16 -23 33
-19 40 4 7 3 8 -5 4 -10 -6 -39 17 -143 117 -10 9 -18 14 -18 10 -1 -5 -10 3
-20 16 -11 13 -20 19 -20 15 0 -5 -4 -4 -8 1 -4 6 -39 31 -79 55 -40 25 -69
48 -65 54 3 6 -2 5 -11 -3 -10 -8 -17 -9 -17 -3 0 6 -16 16 -35 22 -19 6 -35
16 -35 21 0 5 -3 8 -7 7 -14 -4 -108 26 -121 38 -7 7 -19 11 -27 8 -8 -4 -15
-1 -15 6 0 6 -4 8 -10 5 -5 -3 -29 -1 -52 6 -70 18 -149 30 -218 33 -25 0 -48
6 -52 11 -5 7 -8 7 -8 0 0 -6 -22 -9 -52 -7 -52 3 -3988 8 -3991 6z"/>
<path d="M7106 7322 c-3 -5 1 -9 9 -9 8 0 12 4 9 9 -3 4 -7 8 -9 8 -2 0 -6 -4
-9 -8z"/>
<path d="M7536 6678 c3 -5 10 -6 15 -3 13 9 11 12 -6 12 -8 0 -12 -4 -9 -9z"/>
<path d="M7490 6659 c0 -5 5 -7 10 -4 6 3 10 8 10 11 0 2 -4 4 -10 4 -5 0 -10
-5 -10 -11z"/>
<path d="M7539 6648 c-5 -18 -6 -38 -1 -34 7 8 12 36 6 36 -2 0 -4 -1 -5 -2z"/>
<path d="M7573 6489 c-2 -23 3 -25 10 -4 4 8 3 16 -1 19 -4 3 -9 -4 -9 -15z"/>
<path d="M7559 6433 c-13 -16 -12 -17 4 -4 9 7 17 15 17 17 0 8 -8 3 -21 -13z"/>
<path d="M7559 6273 c-13 -16 -12 -17 4 -4 9 7 17 15 17 17 0 8 -8 3 -21 -13z"/>
<path d="M7559 6213 c-13 -16 -12 -17 4 -4 9 7 17 15 17 17 0 8 -8 3 -21 -13z"/>
<path d="M7546 6158 c3 -5 10 -6 15 -3 13 9 11 12 -6 12 -8 0 -12 -4 -9 -9z"/>
<path d="M7586 6162 c-3 -5 1 -9 9 -9 8 0 12 4 9 9 -3 4 -7 8 -9 8 -2 0 -6 -4
-9 -8z"/>
<path d="M7594 6120 c0 -13 4 -16 10 -10 7 7 7 13 0 20 -6 6 -10 3 -10 -10z"/>
<path d="M7636 6118 c3 -5 10 -6 15 -3 13 9 11 12 -6 12 -8 0 -12 -4 -9 -9z"/>
<path d="M7567 5999 c7 -7 15 -10 18 -7 3 3 -2 9 -12 12 -14 6 -15 5 -6 -5z"/>
<path d="M7561 5936 c-9 -11 -9 -16 1 -22 7 -4 10 -4 6 1 -4 4 -3 14 3 22 6 7
9 13 6 13 -2 0 -10 -6 -16 -14z"/>
<path d="M7555 5891 c-3 -5 -2 -12 3 -15 5 -3 9 1 9 9 0 17 -3 19 -12 6z"/>
<path d="M7653 5871 c0 -11 5 -18 9 -15 4 3 5 11 1 19 -7 21 -12 19 -10 -4z"/>
<path d="M7795 5851 c-3 -5 -2 -12 3 -15 5 -3 9 1 9 9 0 17 -3 19 -12 6z"/>
<path d="M635 5801 c-3 -5 -2 -12 3 -15 5 -3 9 1 9 9 0 17 -3 19 -12 6z"/>
<path d="M7656 5778 c3 -5 10 -6 15 -3 13 9 11 12 -6 12 -8 0 -12 -4 -9 -9z"/>
<path d="M7596 5767 c3 -10 9 -15 12 -12 3 3 0 11 -7 18 -10 9 -11 8 -5 -6z"/>
<path d="M7716 5753 c-6 -14 -5 -15 5 -6 7 7 10 15 7 18 -3 3 -9 -2 -12 -12z"/>
<path d="M7656 5658 c3 -5 10 -6 15 -3 13 9 11 12 -6 12 -8 0 -12 -4 -9 -9z"/>
<path d="M7716 5633 c-6 -14 -5 -15 5 -6 7 7 10 15 7 18 -3 3 -9 -2 -12 -12z"/>
<path d="M7594 5606 c1 -8 5 -18 8 -22 4 -3 5 1 4 10 -1 8 -5 18 -8 22 -4 3
-5 -1 -4 -10z"/>
<path d="M7545 5599 c-3 -4 2 -6 10 -5 21 3 28 13 10 13 -9 0 -18 -4 -20 -8z"/>
<path d="M7573 5555 c0 -8 4 -12 9 -9 4 3 8 9 8 15 0 5 -4 9 -8 9 -5 0 -9 -7
-9 -15z"/>
<path d="M7675 5561 c-3 -5 -2 -12 3 -15 5 -3 9 1 9 9 0 17 -3 19 -12 6z"/>
<path d="M7555 5411 c-3 -5 -2 -12 3 -15 5 -3 9 1 9 9 0 17 -3 19 -12 6z"/>
<path d="M7653 5391 c0 -11 5 -18 9 -15 4 3 5 11 1 19 -7 21 -12 19 -10 -4z"/>
<path d="M7716 5367 c3 -10 9 -15 12 -12 3 3 0 11 -7 18 -10 9 -11 8 -5 -6z"/>
<path d="M7656 5298 c3 -5 10 -6 15 -3 13 9 11 12 -6 12 -8 0 -12 -4 -9 -9z"/>
<path d="M7596 5287 c3 -10 9 -15 12 -12 3 3 0 11 -7 18 -10 9 -11 8 -5 -6z"/>
<path d="M7716 5273 c-6 -14 -5 -15 5 -6 7 7 10 15 7 18 -3 3 -9 -2 -12 -12z"/>
<path d="M7656 5178 c3 -5 10 -6 15 -3 13 9 11 12 -6 12 -8 0 -12 -4 -9 -9z"/>
<path d="M7720 5160 c-9 -6 -10 -10 -3 -10 6 0 15 5 18 10 8 12 4 12 -15 0z"/>
<path d="M7594 5126 c1 -8 5 -18 8 -22 4 -3 5 1 4 10 -1 8 -5 18 -8 22 -4 3
-5 -1 -4 -10z"/>
<path d="M7545 5119 c-3 -4 2 -6 10 -5 21 3 28 13 10 13 -9 0 -18 -4 -20 -8z"/>
<path d="M7573 5075 c0 -8 4 -12 9 -9 4 3 8 9 8 15 0 5 -4 9 -8 9 -5 0 -9 -7
-9 -15z"/>
<path d="M7555 4931 c-3 -5 -2 -12 3 -15 5 -3 9 1 9 9 0 17 -3 19 -12 6z"/>
<path d="M7653 4911 c0 -11 5 -18 9 -15 4 3 5 11 1 19 -7 21 -12 19 -10 -4z"/>
<path d="M7716 4887 c3 -10 9 -15 12 -12 3 3 0 11 -7 18 -10 9 -11 8 -5 -6z"/>
<path d="M7795 4891 c-3 -5 -2 -12 3 -15 5 -3 9 1 9 9 0 17 -3 19 -12 6z"/>
<path d="M7656 4818 c3 -5 10 -6 15 -3 13 9 11 12 -6 12 -8 0 -12 -4 -9 -9z"/>
<path d="M7596 4807 c3 -10 9 -15 12 -12 3 3 0 11 -7 18 -10 9 -11 8 -5 -6z"/>
<path d="M7716 4793 c-6 -14 -5 -15 5 -6 7 7 10 15 7 18 -3 3 -9 -2 -12 -12z"/>
<path d="M7656 4698 c3 -5 10 -6 15 -3 13 9 11 12 -6 12 -8 0 -12 -4 -9 -9z"/>
<path d="M7720 4680 c-9 -6 -10 -10 -3 -10 6 0 15 5 18 10 8 12 4 12 -15 0z"/>
<path d="M7594 4646 c1 -8 5 -18 8 -22 4 -3 5 1 4 10 -1 8 -5 18 -8 22 -4 3
-5 -1 -4 -10z"/>
<path d="M7545 4639 c-3 -4 2 -6 10 -5 21 3 28 13 10 13 -9 0 -18 -4 -20 -8z"/>
<path d="M7573 4595 c0 -8 4 -12 9 -9 4 3 8 9 8 15 0 5 -4 9 -8 9 -5 0 -9 -7
-9 -15z"/>
<path d="M7555 4451 c-3 -5 -2 -12 3 -15 5 -3 9 1 9 9 0 17 -3 19 -12 6z"/>
<path d="M7653 4431 c0 -11 5 -18 9 -15 4 3 5 11 1 19 -7 21 -12 19 -10 -4z"/>
<path d="M7716 4407 c3 -10 9 -15 12 -12 3 3 0 11 -7 18 -10 9 -11 8 -5 -6z"/>
<path d="M7656 4338 c3 -5 10 -6 15 -3 13 9 11 12 -6 12 -8 0 -12 -4 -9 -9z"/>
<path d="M7596 4327 c3 -10 9 -15 12 -12 3 3 0 11 -7 18 -10 9 -11 8 -5 -6z"/>
<path d="M7716 4313 c-6 -14 -5 -15 5 -6 7 7 10 15 7 18 -3 3 -9 -2 -12 -12z"/>
<path d="M7656 4218 c3 -5 10 -6 15 -3 13 9 11 12 -6 12 -8 0 -12 -4 -9 -9z"/>
<path d="M7720 4200 c-9 -6 -10 -10 -3 -10 6 0 15 5 18 10 8 12 4 12 -15 0z"/>
<path d="M7594 4166 c1 -8 5 -18 8 -22 4 -3 5 1 4 10 -1 8 -5 18 -8 22 -4 3
-5 -1 -4 -10z"/>
<path d="M7545 4159 c-3 -4 2 -6 10 -5 21 3 28 13 10 13 -9 0 -18 -4 -20 -8z"/>
<path d="M7573 4115 c0 -8 4 -12 9 -9 4 3 8 9 8 15 0 5 -4 9 -8 9 -5 0 -9 -7
-9 -15z"/>
<path d="M7555 3971 c-3 -5 -2 -12 3 -15 5 -3 9 1 9 9 0 17 -3 19 -12 6z"/>
<path d="M7653 3951 c0 -11 5 -18 9 -15 4 3 5 11 1 19 -7 21 -12 19 -10 -4z"/>
<path d="M7716 3927 c3 -10 9 -15 12 -12 3 3 0 11 -7 18 -10 9 -11 8 -5 -6z"/>
<path d="M7795 3931 c-3 -5 -2 -12 3 -15 5 -3 9 1 9 9 0 17 -3 19 -12 6z"/>
<path d="M7656 3858 c3 -5 10 -6 15 -3 13 9 11 12 -6 12 -8 0 -12 -4 -9 -9z"/>
<path d="M7596 3847 c3 -10 9 -15 12 -12 3 3 0 11 -7 18 -10 9 -11 8 -5 -6z"/>
<path d="M7716 3833 c-6 -14 -5 -15 5 -6 7 7 10 15 7 18 -3 3 -9 -2 -12 -12z"/>
<path d="M7656 3738 c3 -5 10 -6 15 -3 13 9 11 12 -6 12 -8 0 -12 -4 -9 -9z"/>
<path d="M7720 3720 c-9 -6 -10 -10 -3 -10 6 0 15 5 18 10 8 12 4 12 -15 0z"/>
<path d="M7593 3685 c0 -8 4 -12 9 -9 5 3 6 10 3 15 -9 13 -12 11 -12 -6z"/>
<path d="M7545 3679 c-3 -4 2 -6 10 -5 21 3 28 13 10 13 -9 0 -18 -4 -20 -8z"/>
<path d="M7573 3635 c0 -8 4 -12 9 -9 4 3 8 9 8 15 0 5 -4 9 -8 9 -5 0 -9 -7
-9 -15z"/>
<path d="M635 3561 c-3 -5 -2 -12 3 -15 5 -3 9 1 9 9 0 17 -3 19 -12 6z"/>
<path d="M600 3520 c-9 -6 -10 -10 -3 -10 6 0 15 5 18 10 8 12 4 12 -15 0z"/>
<path d="M7653 3471 c0 -11 5 -18 9 -15 4 3 5 11 1 19 -7 21 -12 19 -10 -4z"/>
<path d="M7559 3453 c-13 -16 -12 -17 4 -4 16 13 21 21 13 21 -2 0 -10 -8 -17
-17z"/>
<path d="M7716 3447 c3 -10 9 -15 12 -12 3 3 0 11 -7 18 -10 9 -11 8 -5 -6z"/>
<path d="M7610 3420 c0 -5 5 -10 11 -10 5 0 7 5 4 10 -3 6 -8 10 -11 10 -2 0
-4 -4 -4 -10z"/>
<path d="M7655 3421 c-3 -5 -2 -12 3 -15 5 -3 9 1 9 9 0 17 -3 19 -12 6z"/>
<path d="M7590 3401 c0 -6 4 -13 10 -16 6 -3 7 1 4 9 -7 18 -14 21 -14 7z"/>
<path d="M7574 3360 c0 -13 4 -16 10 -10 7 7 7 13 0 20 -6 6 -10 3 -10 -10z"/>
<path d="M7635 3339 c-3 -4 2 -6 10 -5 21 3 28 13 10 13 -9 0 -18 -4 -20 -8z"/>
<path d="M7596 3318 c3 -5 10 -6 15 -3 13 9 11 12 -6 12 -8 0 -12 -4 -9 -9z"/>
<path d="M7666 3282 c-3 -5 1 -9 9 -9 8 0 12 4 9 9 -3 4 -7 8 -9 8 -2 0 -6 -4
-9 -8z"/>
<path d="M7540 3265 c0 -2 6 -8 13 -14 10 -8 14 -7 14 2 0 8 -6 14 -14 14 -7
0 -13 -1 -13 -2z"/>
<path d="M7590 3220 c0 -5 9 -8 20 -7 21 1 18 10 -5 13 -8 1 -15 -2 -15 -6z"/>
<path d="M7634 3182 c4 -3 14 -7 22 -8 9 -1 13 0 10 4 -4 3 -14 7 -22 8 -9 1
-13 0 -10 -4z"/>
<path d="M7550 3155 c5 -7 8 -14 5 -17 -3 -2 2 -5 10 -5 10 0 12 4 5 12 -5 7
-8 14 -5 17 3 2 -2 5 -10 5 -10 0 -12 -4 -5 -12z"/>
<path d="M7587 3099 c7 -7 15 -10 18 -7 3 3 -2 9 -12 12 -14 6 -15 5 -6 -5z"/>
<path d="M7635 3060 c-3 -5 -1 -10 4 -10 6 0 11 5 11 10 0 6 -2 10 -4 10 -3 0
-8 -4 -11 -10z"/>
<path d="M7635 3019 c-3 -4 2 -6 10 -5 21 3 28 13 10 13 -9 0 -18 -4 -20 -8z"/>
<path d="M7596 2998 c3 -5 10 -6 15 -3 13 9 11 12 -6 12 -8 0 -12 -4 -9 -9z"/>
<path d="M7666 2962 c-3 -5 1 -9 9 -9 8 0 12 4 9 9 -3 4 -7 8 -9 8 -2 0 -6 -4
-9 -8z"/>
<path d="M7540 2945 c0 -2 6 -8 13 -14 10 -8 14 -7 14 2 0 8 -6 14 -14 14 -7
0 -13 -1 -13 -2z"/>
<path d="M7590 2900 c0 -5 9 -8 20 -7 21 1 18 10 -5 13 -8 1 -15 -2 -15 -6z"/>
<path d="M7634 2862 c4 -3 14 -7 22 -8 9 -1 13 0 10 4 -4 3 -14 7 -22 8 -9 1
-13 0 -10 -4z"/>
<path d="M7550 2835 c5 -7 8 -14 5 -17 -3 -2 2 -5 10 -5 10 0 12 4 5 12 -5 7
-8 14 -5 17 3 2 -2 5 -10 5 -10 0 -12 -4 -5 -12z"/>
<path d="M7587 2779 c7 -7 15 -10 18 -7 3 3 -2 9 -12 12 -14 6 -15 5 -6 -5z"/>
<path d="M7635 2740 c-3 -5 -1 -10 4 -10 6 0 11 5 11 10 0 6 -2 10 -4 10 -3 0
-8 -4 -11 -10z"/>
<path d="M7635 2699 c-3 -4 2 -6 10 -5 21 3 28 13 10 13 -9 0 -18 -4 -20 -8z"/>
<path d="M7596 2678 c3 -5 10 -6 15 -3 13 9 11 12 -6 12 -8 0 -12 -4 -9 -9z"/>
<path d="M7666 2642 c-3 -5 1 -9 9 -9 8 0 12 4 9 9 -3 4 -7 8 -9 8 -2 0 -6 -4
-9 -8z"/>
<path d="M7540 2625 c0 -2 6 -8 13 -14 10 -8 14 -7 14 2 0 8 -6 14 -14 14 -7
0 -13 -1 -13 -2z"/>
<path d="M7590 2580 c0 -5 9 -8 20 -7 21 1 18 10 -5 13 -8 1 -15 -2 -15 -6z"/>
<path d="M7634 2542 c4 -3 14 -7 22 -8 9 -1 13 0 10 4 -4 3 -14 7 -22 8 -9 1
-13 0 -10 -4z"/>
<path d="M7550 2515 c5 -7 8 -14 5 -17 -3 -2 2 -5 10 -5 10 0 12 4 5 12 -5 7
-8 14 -5 17 3 2 -2 5 -10 5 -10 0 -12 -4 -5 -12z"/>
<path d="M7587 2459 c7 -7 15 -10 18 -7 3 3 -2 9 -12 12 -14 6 -15 5 -6 -5z"/>
<path d="M7635 2420 c-3 -5 -1 -10 4 -10 6 0 11 5 11 10 0 6 -2 10 -4 10 -3 0
-8 -4 -11 -10z"/>
<path d="M7635 2379 c-3 -4 2 -6 10 -5 21 3 28 13 10 13 -9 0 -18 -4 -20 -8z"/>
<path d="M7596 2358 c3 -5 10 -6 15 -3 13 9 11 12 -6 12 -8 0 -12 -4 -9 -9z"/>
<path d="M7669 2323 c-13 -16 -12 -17 4 -4 16 13 21 21 13 21 -2 0 -10 -8 -17
-17z"/>
<path d="M7540 2305 c0 -2 6 -8 13 -14 10 -8 14 -7 14 2 0 8 -6 14 -14 14 -7
0 -13 -1 -13 -2z"/>
<path d="M7590 2260 c0 -5 9 -8 20 -7 21 1 18 10 -5 13 -8 1 -15 -2 -15 -6z"/>
<path d="M7610 2219 c0 -5 5 -7 10 -4 6 3 10 8 10 11 0 2 -4 4 -10 4 -5 0 -10
-5 -10 -11z"/>
<path d="M7550 2195 c5 -7 6 -16 2 -21 -4 -5 -3 -5 2 -1 15 12 15 34 0 34 -9
0 -11 -4 -4 -12z"/>
<path d="M7585 2180 c-3 -6 1 -7 9 -4 18 7 21 14 7 14 -6 0 -13 -4 -16 -10z"/>
<path d="M7573 2115 c0 -8 4 -12 9 -9 4 3 8 9 8 15 0 5 -4 9 -8 9 -5 0 -9 -7
-9 -15z"/>
<path d="M7546 2080 c6 -8 10 -27 9 -41 -1 -15 3 -26 11 -26 9 0 10 5 5 11 -5
6 -7 19 -6 28 2 9 -4 23 -13 30 -15 11 -15 11 -6 -2z"/>
<path d="M7590 2059 c0 -5 5 -7 10 -4 6 3 10 8 10 11 0 2 -4 4 -10 4 -5 0 -10
-5 -10 -11z"/>
<path d="M7610 1979 c0 -5 5 -7 10 -4 6 3 10 8 10 11 0 2 -4 4 -10 4 -5 0 -10
-5 -10 -11z"/>
<path d="M7575 1960 c3 -5 8 -10 11 -10 2 0 4 5 4 10 0 6 -5 10 -11 10 -5 0
-7 -4 -4 -10z"/>
<path d="M7635 1951 c-3 -5 -2 -12 3 -15 5 -3 9 1 9 9 0 17 -3 19 -12 6z"/>
<path d="M7553 1905 c0 -8 4 -12 9 -9 5 3 6 10 3 15 -9 13 -12 11 -12 -6z"/>
<path d="M7555 1810 c10 -11 20 -20 23 -20 3 0 -3 9 -13 20 -10 11 -20 20 -23
20 -3 0 3 -9 13 -20z"/>
<path d="M626 1782 c-3 -5 1 -9 9 -9 8 0 12 4 9 9 -3 4 -7 8 -9 8 -2 0 -6 -4
-9 -8z"/>
<path d="M7493 1753 c0 -9 4 -10 14 -2 7 6 13 12 13 14 0 1 -6 2 -13 2 -8 0
-14 -6 -14 -14z"/>
<path d="M7620 1760 c-9 -6 -10 -10 -3 -10 6 0 15 5 18 10 8 12 4 12 -15 0z"/>
<path d="M7680 1720 c-9 -6 -10 -10 -3 -10 6 0 15 5 18 10 8 12 4 12 -15 0z"/>
<path d="M7507 1699 c7 -7 15 -10 18 -7 3 3 -2 9 -12 12 -14 6 -15 5 -6 -5z"/>
<path d="M7480 1675 c-7 -9 -11 -17 -9 -20 3 -2 10 5 17 15 14 24 10 26 -8 5z"/>
<path d="M7575 1660 c-3 -5 -1 -10 4 -10 6 0 11 5 11 10 0 6 -2 10 -4 10 -3 0
-8 -4 -11 -10z"/>
<path d="M7494 1640 c0 -13 4 -16 10 -10 7 7 7 13 0 20 -6 6 -10 3 -10 -10z"/>
<path d="M7450 1598 c0 -4 4 -8 9 -8 6 0 12 4 15 8 3 5 -1 9 -9 9 -8 0 -15 -4
-15 -9z"/>
<path d="M7510 1602 c0 -5 7 -9 15 -9 8 0 12 4 9 9 -3 4 -9 8 -15 8 -5 0 -9
-4 -9 -8z"/>
<path d="M7576 1578 c3 -5 10 -6 15 -3 13 9 11 12 -6 12 -8 0 -12 -4 -9 -9z"/>
<path d="M7430 1542 c0 -5 7 -9 15 -9 8 0 12 4 9 9 -3 4 -9 8 -15 8 -5 0 -9
-4 -9 -8z"/>
<path d="M7496 1527 c3 -10 9 -15 12 -12 3 3 0 11 -7 18 -10 9 -11 8 -5 -6z"/>
<path d="M770 1520 c0 -5 5 -10 11 -10 5 0 7 5 4 10 -3 6 -8 10 -11 10 -2 0
-4 -4 -4 -10z"/>
<path d="M7390 1469 l-25 -20 25 12 c14 7 29 12 33 11 5 -1 6 2 2 8 -8 13 -5
13 -35 -11z"/>
<path d="M7470 1459 c0 -5 5 -7 10 -4 6 3 10 8 10 11 0 2 -4 4 -10 4 -5 0 -10
-5 -10 -11z"/>
<path d="M7414 1449 c-3 -6 -2 -15 3 -20 5 -5 9 -1 9 11 0 23 -2 24 -12 9z"/>
<path d="M7393 1405 c0 -8 4 -12 9 -9 5 3 6 10 3 15 -9 13 -12 11 -12 -6z"/>
<path d="M7383 1362 c10 -10 14 -22 10 -27 -5 -4 -2 -5 5 -1 11 6 10 12 -4 27
-9 10 -19 19 -22 19 -3 0 2 -8 11 -18z"/>
<path d="M7315 1341 c-3 -5 0 -13 6 -17 7 -4 9 -3 5 4 -3 5 0 13 6 15 9 4 10
6 1 6 -6 1 -14 -3 -18 -8z"/>
<path d="M7350 1346 c0 -2 7 -7 16 -10 8 -3 12 -2 9 4 -6 10 -25 14 -25 6z"/>
<path d="M7510 1339 c0 -5 5 -7 10 -4 6 3 10 8 10 11 0 2 -4 4 -10 4 -5 0 -10
-5 -10 -11z"/>
<path d="M894 1316 c1 -8 5 -18 8 -22 4 -3 5 1 4 10 -1 8 -5 18 -8 22 -4 3 -5
-1 -4 -10z"/>
<path d="M7339 1313 c-13 -16 -12 -17 4 -4 16 13 21 21 13 21 -2 0 -10 -8 -17
-17z"/>
<path d="M7276 1301 c-3 -5 0 -14 8 -20 10 -9 15 -8 19 3 4 11 1 13 -10 9 -11
-4 -14 -2 -9 5 4 7 5 12 2 12 -3 0 -7 -4 -10 -9z"/>
<path d="M7241 1276 c-9 -11 -9 -16 0 -22 8 -5 9 -3 4 6 -6 10 -4 12 8 7 11
-4 14 -2 10 9 -6 17 -8 17 -22 0z"/>
<path d="M7310 1276 c0 -2 8 -10 18 -17 15 -13 16 -12 3 4 -13 16 -21 21 -21
13z"/>
<path d="M7410 1260 c0 -5 5 -10 11 -10 5 0 7 5 4 10 -3 6 -8 10 -11 10 -2 0
-4 -4 -4 -10z"/>
<path d="M7291 1244 c0 -11 3 -14 6 -6 3 7 2 16 -1 19 -3 4 -6 -2 -5 -13z"/>
<path d="M910 1240 c0 -5 5 -10 11 -10 5 0 7 5 4 10 -3 6 -8 10 -11 10 -2 0
-4 -4 -4 -10z"/>
<path d="M7294 1206 c1 -8 5 -18 8 -22 4 -3 5 1 4 10 -1 8 -5 18 -8 22 -4 3
-5 -1 -4 -10z"/>
<path d="M926 1202 c-3 -5 1 -9 9 -9 8 0 12 4 9 9 -3 4 -7 8 -9 8 -2 0 -6 -4
-9 -8z"/>
<path d="M7220 1200 c8 -5 20 -10 25 -10 6 0 3 5 -5 10 -8 5 -19 10 -25 10 -5
0 -3 -5 5 -10z"/>
<path d="M7374 1196 c1 -8 5 -18 8 -22 4 -3 5 1 4 10 -1 8 -5 18 -8 22 -4 3
-5 -1 -4 -10z"/>
<path d="M966 1178 c3 -5 10 -6 15 -3 13 9 11 12 -6 12 -8 0 -12 -4 -9 -9z"/>
<path d="M7136 1162 c-3 -5 1 -9 9 -9 8 0 12 4 9 9 -3 4 -7 8 -9 8 -2 0 -6 -4
-9 -8z"/>
<path d="M7216 1147 c3 -10 9 -15 12 -12 3 3 0 11 -7 18 -10 9 -11 8 -5 -6z"/>
<path d="M7093 1097 c-4 -6 -1 -7 7 -2 10 6 12 4 7 -8 -9 -23 0 -22 12 1 8 14
6 19 -5 19 -8 0 -18 -5 -21 -10z"/>
<path d="M7148 1103 c6 -3 10 -9 6 -14 -8 -14 2 -11 14 4 8 10 6 13 -11 14
-12 0 -16 -1 -9 -4z"/>
<path d="M7290 1100 c0 -5 5 -10 11 -10 5 0 7 5 4 10 -3 6 -8 10 -11 10 -2 0
-4 -4 -4 -10z"/>
<path d="M7179 1073 c-13 -16 -12 -17 4 -4 16 13 21 21 13 21 -2 0 -10 -8 -17
-17z"/>
<path d="M1153 1052 c-1 -22 0 -24 9 -8 6 10 6 22 2 26 -5 5 -10 -3 -11 -18z"/>
<path d="M1045 1060 c-3 -6 1 -7 9 -4 18 7 21 14 7 14 -6 0 -13 -4 -16 -10z"/>
<path d="M7073 1050 c1 -21 10 -18 13 5 1 8 -2 15 -6 15 -5 0 -8 -9 -7 -20z"/>
<path d="M7026 1043 c-4 -9 -4 -14 0 -10 4 4 13 -1 21 -11 12 -15 13 -14 2 8
-16 33 -16 33 -23 13z"/>
<path d="M1097 1035 c-4 -8 -3 -16 1 -19 4 -3 9 4 9 15 2 23 -3 25 -10 4z"/>
<path d="M7139 1033 c-12 -16 -12 -17 2 -6 9 7 20 9 24 5 5 -4 5 -1 1 6 -9 16
-11 15 -27 -5z"/>
<path d="M7187 1039 c7 -7 15 -10 18 -7 3 3 -2 9 -12 12 -14 6 -15 5 -6 -5z"/>
<path d="M7080 1020 c-9 -6 -10 -10 -3 -10 6 0 15 5 18 10 8 12 4 12 -15 0z"/>
<path d="M7235 1020 c-3 -5 -1 -10 4 -10 6 0 11 5 11 10 0 6 -2 10 -4 10 -3 0
-8 -4 -11 -10z"/>
<path d="M7140 1005 c0 -2 6 -8 13 -14 10 -8 14 -7 14 2 0 8 -6 14 -14 14 -7
0 -13 -1 -13 -2z"/>
<path d="M7190 1002 c0 -5 7 -9 15 -9 8 0 12 4 9 9 -3 4 -9 8 -15 8 -5 0 -9
-4 -9 -8z"/>
<path d="M1170 979 c0 -5 5 -7 10 -4 6 3 10 8 10 11 0 2 -4 4 -10 4 -5 0 -10
-5 -10 -11z"/>
<path d="M7040 980 c-9 -6 -10 -10 -3 -10 6 0 15 5 18 10 8 12 4 12 -15 0z"/>
<path d="M6930 960 c0 -3 14 -6 30 -6 17 0 30 3 30 6 0 4 -13 7 -30 7 -16 0
-30 -3 -30 -7z"/>
<path d="M7141 956 c-9 -11 -9 -16 1 -22 7 -4 10 -4 6 1 -4 4 -3 14 3 22 6 7
9 13 6 13 -2 0 -10 -6 -16 -14z"/>
<path d="M1173 945 c0 -8 4 -12 9 -9 5 3 6 10 3 15 -9 13 -12 11 -12 -6z"/>
<path d="M6907 927 c-3 -8 0 -14 7 -14 7 0 13 6 13 14 0 7 -4 13 -8 13 -4 0
-9 -6 -12 -13z"/>
<path d="M1333 913 c0 -9 4 -10 14 -2 7 6 13 12 13 14 0 1 -6 2 -13 2 -8 0
-14 -6 -14 -14z"/>
<path d="M7097 915 c-4 -8 -3 -16 1 -19 4 -3 9 4 9 15 2 23 -3 25 -10 4z"/>
<path d="M6946 902 c-3 -5 1 -9 9 -9 8 0 15 4 15 9 0 4 -4 8 -9 8 -6 0 -12 -4
-15 -8z"/>
<path d="M6777 893 c-10 -9 -9 -23 1 -23 5 0 9 7 9 15 0 17 -1 18 -10 8z"/>
<path d="M6888 893 c-21 -5 -23 -19 -5 -29 6 -4 9 -4 5 1 -4 4 0 14 10 21 18
14 17 14 -10 7z"/>
<path d="M6909 863 c-13 -16 -12 -17 4 -4 9 7 17 15 17 17 0 8 -8 3 -21 -13z"/>
<path d="M6735 859 c-4 -6 -5 -12 -2 -15 2 -3 7 2 10 11 7 17 1 20 -8 4z"/>
<path d="M6828 863 c6 -3 10 -9 6 -14 -8 -14 2 -11 14 4 8 10 6 13 -11 14 -12
0 -16 -1 -9 -4z"/>
<path d="M1489 843 c-13 -16 -12 -17 4 -4 16 13 21 21 13 21 -2 0 -10 -8 -17
-17z"/>
<path d="M6666 845 c-11 -8 -15 -15 -9 -15 6 0 16 7 23 15 16 19 11 19 -14 0z"/>
<path d="M6755 851 c-3 -5 0 -13 6 -17 7 -4 9 -3 5 4 -3 5 0 13 6 15 9 4 10 6
1 6 -6 1 -14 -3 -18 -8z"/>
<path d="M6996 847 c3 -10 9 -15 12 -12 3 3 0 11 -7 18 -10 9 -11 8 -5 -6z"/>
<path d="M1360 840 c-9 -6 -10 -10 -3 -10 6 0 15 5 18 10 8 12 4 12 -15 0z"/>
<path d="M1400 840 c-9 -6 -10 -10 -3 -10 6 0 15 5 18 10 8 12 4 12 -15 0z"/>
<path d="M6856 833 c-6 -14 -5 -15 5 -6 7 7 10 15 7 18 -3 3 -9 -2 -12 -12z"/>
<path d="M1595 820 c-3 -5 -1 -10 4 -10 6 0 11 5 11 10 0 6 -2 10 -4 10 -3 0
-8 -4 -11 -10z"/>
<path d="M1534 800 c0 -13 4 -16 10 -10 7 7 7 13 0 20 -6 6 -10 3 -10 -10z"/>
<path d="M6617 804 c-23 -12 -30 -34 -11 -34 3 0 2 5 -2 12 -5 8 -2 9 10 5 11
-5 15 -3 10 5 -5 7 -2 9 8 6 9 -4 15 0 15 8 0 8 -1 14 -1 14 -1 -1 -14 -8 -29
-16z"/>
<path d="M6700 809 c0 -5 -4 -7 -10 -4 -14 9 -12 -1 3 -13 10 -8 13 -6 14 9 1
10 0 19 -3 19 -2 0 -4 -5 -4 -11z"/>
<path d="M6797 810 c7 -8 20 -15 29 -16 9 -1 13 1 9 4 -4 4 -10 7 -13 7 -4 0
-14 4 -22 9 -12 7 -13 6 -3 -4z"/>
<path d="M1639 808 c-5 -11 -4 -70 1 -73 4 -2 6 14 6 36 0 33 -3 47 -7 37z"/>
<path d="M6934 796 c1 -8 5 -18 8 -22 4 -3 5 1 4 10 -1 8 -5 18 -8 22 -4 3 -5
-1 -4 -10z"/>
<path d="M6753 785 c0 -8 4 -12 9 -9 5 3 6 10 3 15 -9 13 -12 11 -12 -6z"/>
<path d="M1600 775 c-7 -9 -11 -17 -9 -20 3 -2 10 5 17 15 14 24 10 26 -8 5z"/>
<path d="M1667 779 c7 -7 15 -10 18 -7 3 3 -2 9 -12 12 -14 6 -15 5 -6 -5z"/>
<path d="M6550 785 c0 -5 5 -17 10 -25 5 -8 10 -10 10 -5 0 6 -5 17 -10 25 -5
8 -10 11 -10 5z"/>
<path d="M1390 766 c0 -2 7 -7 16 -10 8 -3 12 -2 9 4 -6 10 -25 14 -25 6z"/>
<path d="M1546 758 c3 -4 9 -8 15 -8 5 0 9 4 9 8 0 5 -7 9 -15 9 -8 0 -12 -4
-9 -9z"/>
<path d="M1775 759 c-4 -6 -4 -13 -1 -16 3 -4 6 -1 6 6 0 7 5 9 12 5 7 -4 8
-3 4 4 -9 15 -13 15 -21 1z"/>
<path d="M6384 758 c-4 -5 -3 -12 0 -15 3 -4 6 -1 6 6 0 7 4 10 9 6 5 -3 12
-2 15 3 3 5 -2 9 -10 9 -8 0 -17 -4 -20 -9z"/>
<path d="M6450 757 c0 -6 3 -7 7 -4 3 4 16 -1 27 -10 20 -17 20 -17 6 1 -14
18 -13 19 3 13 10 -4 16 -3 13 2 -8 12 -56 11 -56 -2z"/>
<path d="M6655 761 c-2 -4 12 -7 30 -7 19 0 32 3 29 5 -7 8 -54 9 -59 2z"/>
<path d="M6759 753 c-13 -16 -12 -17 4 -4 16 13 21 21 13 21 -2 0 -10 -8 -17
-17z"/>
<path d="M2237 753 c-10 -9 -9 -23 1 -23 5 0 9 7 9 15 0 17 -1 18 -10 8z"/>
<path d="M2475 749 c-4 -6 -5 -12 -2 -15 2 -3 7 2 10 11 7 17 1 20 -8 4z"/>
<path d="M3355 749 c-4 -6 -5 -12 -2 -15 2 -3 7 2 10 11 7 17 1 20 -8 4z"/>
<path d="M4330 751 c0 -6 4 -13 10 -16 6 -3 7 1 4 9 -7 18 -14 21 -14 7z"/>
<path d="M4555 749 c-4 -6 -5 -12 -2 -15 2 -3 7 2 10 11 7 17 1 20 -8 4z"/>
<path d="M4627 749 c7 -7 15 -10 18 -7 3 3 -2 9 -12 12 -14 6 -15 5 -6 -5z"/>
<path d="M5195 749 c-4 -6 -5 -12 -2 -15 2 -3 7 2 10 11 7 17 1 20 -8 4z"/>
<path d="M5267 749 c7 -7 15 -10 18 -7 3 3 -2 9 -12 12 -14 6 -15 5 -6 -5z"/>
<path d="M5915 749 c-4 -6 -5 -12 -2 -15 2 -3 7 2 10 11 7 17 1 20 -8 4z"/>
<path d="M6195 749 c-4 -6 -5 -12 -2 -15 2 -3 7 2 10 11 7 17 1 20 -8 4z"/>
<path d="M6311 752 c-1 -7 -6 -10 -13 -6 -7 4 -8 3 -4 -5 4 -6 11 -9 16 -6 4
3 11 -1 13 -7 4 -10 6 -10 6 0 1 7 6 10 13 6 7 -4 8 -3 4 5 -4 6 -11 9 -16 6
-4 -3 -11 1 -13 7 -4 10 -6 10 -6 0z"/>
<path d="M1800 735 c-7 -8 -17 -12 -24 -8 -6 3 -7 2 -3 -2 4 -5 15 -10 23 -11
9 -1 13 0 10 3 -3 4 -1 12 5 20 6 7 9 13 6 13 -2 0 -10 -7 -17 -15z"/>
<path d="M1948 730 c5 -14 8 -33 6 -43 -1 -9 2 -15 6 -12 11 7 2 56 -11 70 -7
7 -7 2 -1 -15z"/>
<path d="M2056 741 c-4 -5 3 -7 14 -4 23 6 26 13 6 13 -8 0 -17 -4 -20 -9z"/>
<path d="M2315 739 c-4 -6 -5 -12 -2 -15 2 -3 7 2 10 11 7 17 1 20 -8 4z"/>
<path d="M2489 729 c-6 -13 -7 -19 -1 -15 6 3 13 0 16 -6 3 -7 3 -2 0 11 -5
17 -3 21 6 16 9 -5 11 -4 6 3 -10 16 -14 15 -27 -9z"/>
<path d="M2576 742 c-2 -4 0 -14 6 -22 8 -12 9 -11 4 4 -5 13 -2 17 9 12 8 -3
15 -1 15 4 0 12 -27 13 -34 2z"/>
<path d="M2670 740 c0 -5 7 -7 15 -4 8 4 15 8 15 10 0 2 -7 4 -15 4 -8 0 -15
-4 -15 -10z"/>
<path d="M2875 740 c-3 -5 -1 -10 4 -10 6 0 11 5 11 10 0 6 -2 10 -4 10 -3 0
-8 -4 -11 -10z"/>
<path d="M3056 742 c-2 -4 0 -14 6 -22 8 -12 9 -11 4 4 -5 13 -2 17 9 12 8 -3
15 -1 15 4 0 12 -27 13 -34 2z"/>
<path d="M3150 740 c0 -5 7 -7 15 -4 11 5 14 1 9 -12 -5 -15 -4 -16 4 -4 6 8
8 18 6 22 -7 11 -34 10 -34 -2z"/>
<path d="M3379 748 c-1 -2 -3 -13 -4 -25 -2 -15 2 -20 13 -15 11 4 13 2 7 -8
-6 -9 -4 -11 5 -5 10 6 10 11 -3 20 -19 14 -23 30 -5 19 7 -4 8 -3 4 4 -7 11
-14 15 -17 10z"/>
<path d="M3416 742 c-2 -4 0 -14 6 -22 8 -12 9 -12 4 2 -3 10 1 18 12 21 16 4
16 5 0 6 -9 0 -19 -3 -22 -7z"/>
<path d="M3595 740 c-3 -5 -1 -10 4 -10 6 0 11 5 11 10 0 6 -2 10 -4 10 -3 0
-8 -4 -11 -10z"/>
<path d="M3779 748 c-7 -23 -5 -37 4 -31 7 4 8 0 3 -13 -6 -15 -5 -16 5 -7 10
10 9 16 -2 29 -12 16 -12 17 4 11 9 -3 17 -2 17 3 0 8 -28 15 -31 8z"/>
<path d="M3854 735 c-3 -8 -4 -20 -2 -27 3 -7 7 -1 10 15 6 29 1 36 -8 12z"/>
<path d="M3895 741 c-3 -5 0 -13 6 -17 7 -4 9 -3 5 4 -3 6 2 13 11 15 16 4 16
5 1 6 -9 0 -19 -3 -23 -8z"/>
<path d="M4075 740 c-3 -5 -1 -10 4 -10 6 0 11 5 11 10 0 6 -2 10 -4 10 -3 0
-8 -4 -11 -10z"/>
<path d="M4259 748 c-7 -23 -5 -37 4 -31 7 4 8 0 3 -13 -6 -15 -5 -16 5 -7 10
10 9 16 -2 29 -12 16 -12 17 4 11 9 -3 17 -2 17 3 0 8 -28 15 -31 8z"/>
<path d="M4575 740 c-3 -5 -3 -10 2 -10 4 0 2 -4 -5 -9 -11 -7 -10 -9 3 -14 9
-4 14 -3 10 2 -3 5 1 12 7 14 10 4 10 6 0 6 -7 1 -10 6 -7 11 3 6 4 10 1 10
-3 0 -8 -4 -11 -10z"/>
<path d="M4795 740 c-3 -5 -1 -10 4 -10 6 0 11 5 11 10 0 6 -2 10 -4 10 -3 0
-8 -4 -11 -10z"/>
<path d="M4976 742 c-2 -4 0 -14 6 -22 8 -12 9 -11 4 4 -5 13 -2 17 9 12 8 -3
15 -1 15 4 0 12 -27 13 -34 2z"/>
<path d="M5070 740 c0 -5 7 -7 15 -4 11 5 14 1 9 -12 -5 -15 -4 -16 4 -4 6 8
8 18 6 22 -7 11 -34 10 -34 -2z"/>
<path d="M5215 740 c-3 -5 -3 -10 2 -10 4 0 2 -4 -5 -9 -11 -7 -10 -9 3 -14 9
-4 14 -3 10 2 -3 5 1 12 7 14 10 4 10 6 0 6 -7 1 -10 6 -7 11 3 6 4 10 1 10
-3 0 -8 -4 -11 -10z"/>
<path d="M5616 742 c-2 -4 0 -14 6 -22 8 -12 9 -11 4 4 -5 13 -2 17 9 12 8 -3
15 -1 15 4 0 12 -27 13 -34 2z"/>
<path d="M5710 740 c0 -5 7 -7 15 -4 11 5 14 1 9 -12 -5 -15 -4 -16 4 -4 6 8
8 18 6 22 -7 11 -34 10 -34 -2z"/>
<path d="M5939 748 c-8 -27 -5 -36 9 -30 10 4 12 7 4 10 -7 2 -10 8 -6 13 3 5
3 9 0 9 -3 0 -6 -1 -7 -2z"/>
<path d="M5995 739 c-4 -6 -5 -12 -2 -15 2 -3 7 2 10 11 7 17 1 20 -8 4z"/>
<path d="M6228 743 c6 -2 9 -10 6 -15 -4 -7 -2 -8 5 -4 13 9 5 26 -12 25 -9 0
-8 -2 1 -6z"/>
<path d="M6433 735 c0 -8 4 -12 9 -9 5 3 6 10 3 15 -9 13 -12 11 -12 -6z"/>
<path d="M6600 740 c-9 -6 -10 -10 -3 -10 6 0 15 5 18 10 8 12 4 12 -15 0z"/>
<path d="M1875 729 c-4 -6 -5 -12 -2 -15 2 -3 7 2 10 11 7 17 1 20 -8 4z"/>
<path d="M2191 724 c0 -11 3 -14 6 -6 3 7 2 16 -1 19 -3 4 -6 -2 -5 -13z"/>
<path d="M2270 730 c-9 -6 -10 -10 -3 -10 6 0 15 5 18 10 8 12 4 12 -15 0z"/>
<path d="M2431 733 c-1 -17 16 -25 25 -12 4 7 3 9 -4 5 -5 -3 -13 0 -15 6 -4
9 -6 10 -6 1z"/>
<path d="M2904 724 c-18 -14 -18 -15 4 -4 12 6 22 13 22 15 0 8 -5 6 -26 -11z"/>
<path d="M3306 723 c-6 -14 -5 -15 5 -6 7 7 10 15 7 18 -3 3 -9 -2 -12 -12z"/>
<path d="M3624 724 c-18 -14 -18 -15 4 -4 12 6 22 13 22 15 0 8 -5 6 -26 -11z"/>
<path d="M3667 728 c-4 -13 -1 -16 15 -13 11 3 23 7 27 11 3 4 -2 4 -11 1 -9
-3 -18 -1 -21 6 -2 6 -6 4 -10 -5z"/>
<path d="M4104 724 c-18 -14 -18 -15 4 -4 12 6 22 13 22 15 0 8 -5 6 -26 -11z"/>
<path d="M4147 728 c-4 -13 -1 -16 15 -13 11 3 23 7 27 11 3 4 -2 4 -11 1 -9
-3 -18 -1 -21 6 -2 6 -6 4 -10 -5z"/>
<path d="M4438 733 c7 -3 16 -2 19 1 4 3 -2 6 -13 5 -11 0 -14 -3 -6 -6z"/>
<path d="M4477 733 c-11 -11 -8 -20 7 -20 8 0 12 6 9 14 -6 15 -7 15 -16 6z"/>
<path d="M4824 724 c-18 -14 -18 -15 4 -4 12 6 22 13 22 15 0 8 -5 6 -26 -11z"/>
<path d="M5120 731 c0 -6 4 -13 10 -16 6 -3 7 1 4 9 -7 18 -14 21 -14 7z"/>
<path d="M5464 724 c-18 -14 -18 -15 4 -4 12 6 22 13 22 15 0 8 -5 6 -26 -11z"/>
<path d="M5866 723 c-6 -14 -5 -15 5 -6 7 7 10 15 7 18 -3 3 -9 -2 -12 -12z"/>
<path d="M6106 725 c-9 -26 -7 -32 5 -12 6 10 9 21 6 23 -2 3 -7 -2 -11 -11z"/>
<path d="M6270 733 c5 -2 8 -9 4 -14 -3 -5 0 -9 6 -9 15 0 7 23 -8 26 -7 1 -8
0 -2 -3z"/>
<path d="M6405 723 c-11 -25 -15 -46 -7 -38 4 4 7 10 7 13 0 4 4 13 9 20 4 7
6 15 3 18 -2 3 -8 -3 -12 -13z"/>
<path d="M2004 719 c-4 -7 -3 -9 4 -5 5 3 13 0 15 -6 4 -9 6 -10 6 -1 1 17
-16 25 -25 12z"/>
<path d="M2090 721 c0 -4 18 -7 40 -7 21 0 37 2 34 5 -7 8 -74 9 -74 2z"/>
<path d="M2370 719 c0 -7 3 -10 6 -6 3 3 18 1 33 -4 15 -6 22 -6 16 -1 -18 17
-55 24 -55 11z"/>
<path d="M2690 719 c0 -5 5 -7 10 -4 6 3 10 8 10 11 0 2 -4 4 -10 4 -5 0 -10
-5 -10 -11z"/>
<path d="M2730 719 c0 -8 47 -5 55 3 3 3 -8 5 -25 5 -16 0 -30 -4 -30 -8z"/>
<path d="M2840 726 c0 -2 7 -7 16 -10 8 -3 12 -2 9 4 -6 10 -25 14 -25 6z"/>
<path d="M2980 720 c18 -12 30 -13 30 -2 0 4 -10 9 -22 9 -18 2 -20 0 -8 -7z"/>
<path d="M3210 718 c0 -4 4 -8 9 -8 6 0 12 4 15 8 3 5 -1 9 -9 9 -8 0 -15 -4
-15 -9z"/>
<path d="M3450 720 c0 -5 5 -10 10 -10 6 0 10 5 10 10 0 6 -4 10 -10 10 -5 0
-10 -4 -10 -10z"/>
<path d="M3570 720 c8 -5 20 -10 25 -10 6 0 3 5 -5 10 -8 5 -19 10 -25 10 -5
0 -3 -5 5 -10z"/>
<path d="M3724 722 c4 -3 14 -7 22 -8 9 -1 13 0 10 4 -4 3 -14 7 -22 8 -9 1
-13 0 -10 -4z"/>
<path d="M3930 718 c0 -6 3 -8 7 -5 3 4 13 1 22 -6 14 -11 14 -10 2 6 -15 20
-31 22 -31 5z"/>
<path d="M4050 720 c8 -5 20 -10 25 -10 6 0 3 5 -5 10 -8 5 -19 10 -25 10 -5
0 -3 -5 5 -10z"/>
<path d="M4204 722 c4 -3 14 -7 22 -8 9 -1 13 0 10 4 -4 3 -14 7 -22 8 -9 1
-13 0 -10 -4z"/>
<path d="M4314 699 c-2 -35 5 -33 12 5 2 14 1 26 -3 26 -5 0 -9 -14 -9 -31z"/>
<path d="M4650 719 c0 -8 47 -5 55 3 3 3 -8 5 -25 5 -16 0 -30 -4 -30 -8z"/>
<path d="M4760 726 c0 -2 7 -7 16 -10 8 -3 12 -2 9 4 -6 10 -25 14 -25 6z"/>
<path d="M4900 720 c18 -12 30 -13 30 -2 0 4 -10 9 -22 9 -18 2 -20 0 -8 -7z"/>
<path d="M5290 719 c0 -8 47 -5 55 3 3 3 -8 5 -25 5 -16 0 -30 -4 -30 -8z"/>
<path d="M5400 726 c0 -2 7 -7 16 -10 8 -3 12 -2 9 4 -6 10 -25 14 -25 6z"/>
<path d="M5540 720 c18 -12 30 -13 30 -2 0 4 -10 9 -22 9 -18 2 -20 0 -8 -7z"/>
<path d="M5770 718 c0 -4 4 -8 9 -8 6 0 12 4 15 8 3 5 -1 9 -9 9 -8 0 -15 -4
-15 -9z"/>
<path d="M6050 720 c0 -5 5 -10 10 -10 6 0 10 5 10 10 0 6 -4 10 -10 10 -5 0
-10 -4 -10 -10z"/>
<path d="M6756 722 c-3 -5 1 -9 9 -9 8 0 12 4 9 9 -3 4 -7 8 -9 8 -2 0 -6 -4
-9 -8z"/>
<path d="M6865 720 c-3 -6 1 -7 9 -4 18 7 21 14 7 14 -6 0 -13 -4 -16 -10z"/>
<path d="M5836 711 c-3 -5 1 -11 9 -14 9 -4 12 -1 8 9 -6 16 -10 17 -17 5z"/>
<path d="M6193 705 c0 -8 4 -15 9 -15 4 0 8 4 8 9 0 6 -4 12 -8 15 -5 3 -9 -1
-9 -9z"/>
<path d="M1879 693 c-13 -16 -12 -17 4 -4 16 13 21 21 13 21 -2 0 -10 -8 -17
-17z"/>
<path d="M2346 703 c6 -4 10 -16 8 -25 -1 -10 1 -20 5 -23 4 -2 7 8 6 22 0 15
-7 28 -15 31 -10 2 -11 1 -4 -5z"/>
<path d="M2714 693 c2 -10 -2 -25 -8 -33 -9 -13 -9 -13 6 -2 16 12 18 35 6 48
-4 3 -5 -2 -4 -13z"/>
<path d="M2786 696 c5 -12 4 -17 -3 -13 -5 3 -10 -1 -10 -9 0 -13 2 -13 16 0
12 13 13 18 2 28 -10 11 -11 9 -5 -6z"/>
<path d="M2964 699 c-3 -6 0 -17 8 -25 13 -13 15 -13 15 0 0 8 -5 12 -10 9 -6
-4 -8 0 -4 10 7 19 2 23 -9 6z"/>
<path d="M3039 708 c-7 -24 -4 -39 9 -50 14 -10 15 -10 5 2 -10 11 -9 16 5 27
16 12 16 13 -2 6 -13 -4 -17 -3 -12 5 4 7 5 12 2 12 -3 0 -6 -1 -7 -2z"/>
<path d="M3260 706 c0 -2 9 -6 20 -9 11 -3 18 -1 14 4 -5 9 -34 13 -34 5z"/>
<path d="M3708 692 c5 -9 8 -25 6 -35 -1 -11 0 -16 4 -12 12 12 9 54 -5 59
-10 4 -11 1 -5 -12z"/>
<path d="M4188 692 c5 -9 8 -25 6 -35 -1 -11 0 -16 4 -12 12 12 9 54 -5 59
-10 4 -11 1 -5 -12z"/>
<path d="M4426 703 c6 -4 10 -24 8 -43 -2 -19 1 -29 5 -22 13 21 6 65 -9 70
-10 2 -11 1 -4 -5z"/>
<path d="M4513 703 c4 -3 -1 -16 -10 -27 -18 -21 -18 -21 5 -2 24 21 29 36 10
36 -6 0 -8 -3 -5 -7z"/>
<path d="M4706 696 c5 -12 4 -17 -3 -13 -5 3 -10 -1 -10 -9 0 -13 2 -13 16 0
12 13 13 18 2 28 -10 11 -11 9 -5 -6z"/>
<path d="M4884 699 c-3 -6 0 -17 8 -25 13 -13 15 -13 15 0 0 8 -5 12 -10 9 -6
-4 -8 0 -4 10 7 19 2 23 -9 6z"/>
<path d="M4959 708 c-7 -24 -4 -39 9 -50 14 -10 15 -10 5 2 -10 11 -9 16 5 27
16 12 16 13 -2 6 -13 -4 -17 -3 -12 5 4 7 5 12 2 12 -3 0 -6 -1 -7 -2z"/>
<path d="M5113 695 c0 -8 4 -12 9 -9 5 3 6 10 3 15 -9 13 -12 11 -12 -6z"/>
<path d="M5153 703 c4 -3 -1 -16 -10 -27 -18 -21 -18 -21 5 -2 24 21 29 36 10
36 -6 0 -8 -3 -5 -7z"/>
<path d="M5346 696 c5 -12 4 -17 -3 -13 -5 3 -10 -1 -10 -9 0 -13 2 -13 16 0
12 13 13 18 2 28 -10 11 -11 9 -5 -6z"/>
<path d="M5524 699 c-3 -6 0 -17 8 -25 13 -13 15 -13 15 0 0 8 -5 12 -10 9 -6
-4 -8 0 -4 10 7 19 2 23 -9 6z"/>
<path d="M5599 703 c-1 -5 -1 -12 0 -17 1 -5 -4 -6 -12 -3 -7 3 -14 -1 -14 -9
0 -7 4 -11 9 -8 5 3 17 0 26 -7 14 -11 15 -11 5 1 -10 11 -9 16 5 27 16 12 16
13 -2 6 -13 -4 -17 -3 -12 5 4 7 5 12 2 12 -3 0 -7 -3 -7 -7z"/>
<path d="M5799 708 c-5 -14 -4 -60 2 -70 4 -7 7 3 5 22 -2 19 2 38 8 42 8 5 7
8 -1 8 -7 0 -13 -1 -14 -2z"/>
<path d="M6360 700 c-9 -6 -10 -10 -3 -10 6 0 15 5 18 10 8 12 4 12 -15 0z"/>
<path d="M2254 679 c0 -14 3 -16 16 -6 8 6 16 12 18 13 1 1 -5 4 -15 6 -13 4
-19 0 -19 -13z"/>
<path d="M2424 678 l-19 -23 23 19 c21 18 27 26 19 26 -2 0 -12 -10 -23 -22z"/>
<path d="M2543 684 c9 -11 15 -23 12 -26 -3 -2 2 -5 10 -5 10 0 12 4 5 12 -5
7 -6 16 -2 21 4 5 3 6 -2 2 -5 -4 -16 -2 -25 4 -12 10 -12 7 2 -8z"/>
<path d="M2580 692 c0 -6 5 -14 10 -17 6 -4 8 -10 6 -14 -3 -4 1 -8 9 -8 12 0
12 4 -2 21 -10 12 -19 23 -20 25 -2 2 -3 -1 -3 -7z"/>
<path d="M2621 683 c8 -13 18 -23 23 -23 5 0 6 3 3 7 -4 3 1 12 11 20 15 13
15 13 -4 4 -15 -7 -25 -7 -34 2 -9 9 -8 6 1 -10z"/>
<path d="M2678 676 c-13 -18 -14 -23 -2 -23 8 0 12 3 9 5 -3 3 0 11 7 19 6 7
9 15 7 17 -2 2 -12 -6 -21 -18z"/>
<path d="M2860 690 c0 -5 -8 -7 -17 -3 -19 6 -18 5 7 -14 13 -10 16 -8 17 8 1
10 0 19 -3 19 -2 0 -4 -4 -4 -10z"/>
<path d="M2893 683 c1 -18 4 -20 17 -10 25 19 26 20 8 14 -9 -3 -19 -1 -21 6
-3 7 -4 2 -4 -10z"/>
<path d="M3102 687 c12 -9 14 -17 7 -24 -6 -6 -5 -10 6 -10 8 0 13 3 10 5 -3
3 3 15 12 26 10 12 11 16 4 9 -10 -9 -20 -9 -35 -2 -19 9 -19 9 -4 -4z"/>
<path d="M3158 676 c-13 -18 -14 -23 -2 -23 8 0 12 3 9 5 -3 3 0 11 7 19 6 7
9 15 7 17 -2 2 -12 -6 -21 -18z"/>
<path d="M3335 690 c-4 -6 -10 -8 -14 -6 -4 3 -8 -1 -8 -9 0 -10 4 -12 12 -5
7 5 14 8 17 5 2 -3 5 2 5 10 0 18 -3 19 -12 5z"/>
<path d="M3917 693 c-10 -9 -9 -23 1 -23 5 0 9 7 9 15 0 17 -1 18 -10 8z"/>
<path d="M4780 690 c0 -5 -8 -7 -17 -3 -19 6 -18 5 7 -14 13 -10 16 -8 17 8 1
10 0 19 -3 19 -2 0 -4 -4 -4 -10z"/>
<path d="M4813 683 c1 -18 4 -20 17 -10 25 19 26 20 8 14 -9 -3 -19 -1 -21 6
-3 7 -4 2 -4 -10z"/>
<path d="M5022 687 c12 -9 14 -17 7 -24 -6 -6 -5 -10 6 -10 8 0 13 3 10 5 -3
3 3 15 12 26 10 12 11 16 4 9 -10 -9 -20 -9 -35 -2 -19 9 -19 9 -4 -4z"/>
<path d="M5078 676 c-13 -18 -14 -23 -2 -23 8 0 12 3 9 5 -3 3 0 11 7 19 6 7
9 15 7 17 -2 2 -12 -6 -21 -18z"/>
<path d="M5420 690 c0 -5 -8 -7 -17 -3 -19 6 -18 5 7 -14 13 -10 16 -8 17 8 1
10 0 19 -3 19 -2 0 -4 -4 -4 -10z"/>
<path d="M5453 683 c1 -18 4 -20 17 -10 25 19 26 20 8 14 -9 -3 -19 -1 -21 6
-3 7 -4 2 -4 -10z"/>
<path d="M5662 687 c12 -9 14 -17 7 -24 -6 -6 -5 -10 6 -10 8 0 13 3 10 5 -3
3 3 15 12 26 10 12 11 16 4 9 -10 -9 -20 -9 -35 -2 -19 9 -19 9 -4 -4z"/>
<path d="M5718 676 c-13 -18 -14 -23 -2 -23 8 0 12 3 9 5 -3 3 0 11 7 19 6 7
9 15 7 17 -2 2 -12 -6 -21 -18z"/>
<path d="M5895 690 c-4 -6 -11 -8 -16 -5 -5 4 -9 2 -9 -4 0 -5 8 -9 18 -8 10
0 19 7 19 14 0 16 -4 16 -12 3z"/>
<path d="M5933 683 c1 -18 4 -20 17 -10 25 19 26 20 8 14 -9 -3 -19 -1 -21 6
-3 7 -4 2 -4 -10z"/>
<path d="M6137 689 c7 -7 15 -10 18 -7 3 3 -2 9 -12 12 -14 6 -15 5 -6 -5z"/>
<path d="M1555 680 c3 -5 8 -10 11 -10 2 0 4 5 4 10 0 6 -5 10 -11 10 -5 0 -7
-4 -4 -10z"/>
<path d="M1740 686 c0 -2 8 -10 18 -17 15 -13 16 -12 3 4 -13 16 -21 21 -21
13z"/>
<path d="M2479 688 c-7 -23 -4 -35 7 -35 9 0 11 4 4 12 -5 7 -7 15 -3 18 3 4
3 7 0 7 -4 0 -7 -1 -8 -2z"/>
<path d="M2509 677 c6 -8 9 -16 6 -19 -3 -2 2 -5 10 -5 13 0 13 3 -2 19 -19
21 -31 25 -14 5z"/>
<path d="M3011 674 c0 -11 3 -14 6 -6 3 7 2 16 -1 19 -3 4 -6 -2 -5 -13z"/>
<path d="M3193 683 c4 -3 1 -13 -6 -22 -11 -14 -10 -14 5 -2 16 12 16 31 1 31
-4 0 -3 -3 0 -7z"/>
<path d="M3256 678 c3 -5 10 -6 15 -3 13 9 11 12 -6 12 -8 0 -12 -4 -9 -9z"/>
<path d="M3430 680 c0 -5 5 -10 11 -10 5 0 7 5 4 10 -3 6 -8 10 -11 10 -2 0
-4 -4 -4 -10z"/>
<path d="M3560 680 c8 -5 20 -10 25 -10 6 0 3 5 -5 10 -8 5 -19 10 -25 10 -5
0 -3 -5 5 -10z"/>
<path d="M3620 680 c-8 -5 -10 -10 -5 -10 6 0 17 5 25 10 8 5 11 10 5 10 -5 0
-17 -5 -25 -10z"/>
<path d="M3833 672 c2 -12 9 -28 17 -35 10 -10 11 -9 4 3 -5 8 -9 21 -10 28
-2 8 -5 17 -8 20 -4 3 -5 -4 -3 -16z"/>
<path d="M3973 673 c0 -9 4 -10 14 -2 7 6 13 12 13 14 0 1 -6 2 -13 2 -8 0
-14 -6 -14 -14z"/>
<path d="M4040 680 c8 -5 20 -10 25 -10 6 0 3 5 -5 10 -8 5 -19 10 -25 10 -5
0 -3 -5 5 -10z"/>
<path d="M4100 680 c-8 -5 -10 -10 -5 -10 6 0 17 5 25 10 8 5 11 10 5 10 -5 0
-17 -5 -25 -10z"/>
<path d="M4576 673 c-6 -14 -5 -15 5 -6 7 7 10 15 7 18 -3 3 -9 -2 -12 -12z"/>
<path d="M4931 674 c0 -11 3 -14 6 -6 3 7 2 16 -1 19 -3 4 -6 -2 -5 -13z"/>
<path d="M5216 673 c-6 -14 -5 -15 5 -6 7 7 10 15 7 18 -3 3 -9 -2 -12 -12z"/>
<path d="M6000 685 c0 -2 6 -8 13 -14 10 -8 14 -7 14 2 0 8 -6 14 -14 14 -7 0
-13 -1 -13 -2z"/>
<path d="M6076 681 c-3 -5 2 -15 12 -22 15 -12 16 -12 5 2 -7 9 -10 19 -6 22
3 4 4 7 0 7 -3 0 -8 -4 -11 -9z"/>
<path d="M6109 677 c6 -8 9 -16 6 -19 -3 -2 2 -5 10 -5 13 0 13 3 -2 19 -19
21 -31 25 -14 5z"/>
<path d="M6470 686 c0 -2 7 -7 16 -10 8 -3 12 -2 9 4 -6 10 -25 14 -25 6z"/>
<path d="M6534 675 c3 -23 12 -26 13 -5 1 11 -2 20 -7 20 -4 0 -7 -7 -6 -15z"/>
<path d="M3070 670 c0 -5 5 -10 11 -10 5 0 7 5 4 10 -3 6 -8 10 -11 10 -2 0
-4 -4 -4 -10z"/>
<path d="M3749 663 c-13 -16 -12 -17 4 -4 16 13 21 21 13 21 -2 0 -10 -8 -17
-17z"/>
<path d="M4229 663 c-13 -16 -12 -17 4 -4 16 13 21 21 13 21 -2 0 -10 -8 -17
-17z"/>
<path d="M4990 670 c0 -5 5 -10 11 -10 5 0 7 5 4 10 -3 6 -8 10 -11 10 -2 0
-4 -4 -4 -10z"/>
<path d="M5630 670 c0 -5 5 -10 11 -10 5 0 7 5 4 10 -3 6 -8 10 -11 10 -2 0
-4 -4 -4 -10z"/>
<path d="M1654 662 c4 -3 14 -7 22 -8 9 -1 13 0 10 4 -4 3 -14 7 -22 8 -9 1
-13 0 -10 -4z"/>
<path d="M2309 657 c6 -8 7 -18 3 -22 -4 -5 -1 -5 6 -1 10 6 10 11 1 22 -6 8
-14 14 -16 14 -3 0 0 -6 6 -13z"/>
<path d="M2920 655 c-11 -13 -11 -18 0 -28 10 -9 11 -9 6 1 -4 7 -2 19 4 27 7
8 10 15 7 15 -2 0 -10 -7 -17 -15z"/>
<path d="M3280 655 c-7 -8 -17 -12 -23 -8 -6 4 -7 1 -3 -6 6 -9 13 -8 27 5 10
9 19 19 19 21 0 7 -8 2 -20 -12z"/>
<path d="M3679 653 c-13 -16 -12 -17 4 -4 9 7 17 15 17 17 0 8 -8 3 -21 -13z"/>
<path d="M4161 656 c-7 -8 -20 -13 -30 -11 -10 2 -18 -3 -18 -11 0 -9 4 -11
12 -4 7 5 14 8 17 5 3 -3 13 4 23 15 10 11 16 20 13 20 -3 0 -11 -6 -17 -14z"/>
<path d="M4400 660 c-9 -6 -10 -10 -3 -10 6 0 15 5 18 10 8 12 4 12 -15 0z"/>
<path d="M4840 655 c-11 -13 -11 -18 0 -28 10 -9 11 -9 6 1 -4 7 -2 19 4 27 7
8 10 15 7 15 -2 0 -10 -7 -17 -15z"/>
<path d="M5480 655 c-11 -13 -11 -18 0 -28 10 -9 11 -9 6 1 -4 7 -2 19 4 27 7
8 10 15 7 15 -2 0 -10 -7 -17 -15z"/>
<path d="M5746 662 c-2 -4 4 -8 14 -8 10 0 16 4 14 8 -3 4 -9 8 -14 8 -5 0
-11 -4 -14 -8z"/>
<path d="M5830 656 c7 -7 13 -7 20 0 6 6 3 10 -10 10 -13 0 -16 -4 -10 -10z"/>
<path d="M5961 656 c-9 -11 -9 -16 1 -22 7 -4 10 -4 6 1 -4 4 -3 14 3 22 6 7
9 13 6 13 -2 0 -10 -6 -16 -14z"/>
<path d="M1895 640 c2 -27 10 -33 12 -10 1 11 -2 22 -6 24 -4 3 -7 -4 -6 -14z"/>
<path d="M2726 645 c-11 -8 -15 -15 -9 -15 6 0 16 7 23 15 16 19 11 19 -14 0z"/>
<path d="M3416 647 c3 -10 9 -15 12 -12 3 3 0 11 -7 18 -10 9 -11 8 -5 -6z"/>
<path d="M3775 649 c-4 -6 -5 -12 -2 -15 2 -3 7 2 10 11 7 17 1 20 -8 4z"/>
<path d="M3896 647 c3 -10 9 -15 12 -12 3 3 0 11 -7 18 -10 9 -11 8 -5 -6z"/>
<path d="M4255 649 c-4 -6 -5 -12 -2 -15 2 -3 7 2 10 11 7 17 1 20 -8 4z"/>
<path d="M4646 645 c-11 -8 -15 -15 -9 -15 6 0 16 7 23 15 16 19 11 19 -14 0z"/>
<path d="M5286 645 c-11 -8 -15 -15 -9 -15 6 0 16 7 23 15 16 19 11 19 -14 0z"/>
<path d="M1770 640 c0 -5 5 -10 11 -10 5 0 7 5 4 10 -3 6 -8 10 -11 10 -2 0
-4 -4 -4 -10z"/>
<path d="M2035 640 c-3 -5 -1 -10 4 -10 6 0 11 5 11 10 0 6 -2 10 -4 10 -3 0
-8 -4 -11 -10z"/>
<path d="M2256 633 c-6 -14 -5 -15 5 -6 7 7 10 15 7 18 -3 3 -9 -2 -12 -12z"/>
<path d="M2416 638 c3 -5 10 -6 15 -3 13 9 11 12 -6 12 -8 0 -12 -4 -9 -9z"/>
<path d="M2760 640 c-9 -6 -10 -10 -3 -10 6 0 15 5 18 10 8 12 4 12 -15 0z"/>
<path d="M2879 633 c-13 -16 -12 -17 4 -4 16 13 21 21 13 21 -2 0 -10 -8 -17
-17z"/>
<path d="M3016 642 c-3 -4 4 -9 15 -9 23 -2 25 3 4 10 -8 4 -16 3 -19 -1z"/>
<path d="M3510 645 c0 -7 30 -13 34 -7 3 4 -4 9 -15 9 -10 1 -19 0 -19 -2z"/>
<path d="M3556 633 c-6 -14 -5 -15 5 -6 7 7 10 15 7 18 -3 3 -9 -2 -12 -12z"/>
<path d="M3616 638 c3 -5 10 -6 15 -3 13 9 11 12 -6 12 -8 0 -12 -4 -9 -9z"/>
<path d="M3976 638 c3 -4 11 -5 19 -1 21 7 19 12 -4 10 -11 0 -18 -5 -15 -9z"/>
<path d="M4496 638 c3 -5 10 -6 15 -3 13 9 11 12 -6 12 -8 0 -12 -4 -9 -9z"/>
<path d="M4680 640 c-9 -6 -10 -10 -3 -10 6 0 15 5 18 10 8 12 4 12 -15 0z"/>
<path d="M4799 633 c-13 -16 -12 -17 4 -4 9 7 17 15 17 17 0 8 -8 3 -21 -13z"/>
<path d="M4936 642 c-3 -4 4 -9 15 -9 23 -2 25 3 4 10 -8 4 -16 3 -19 -1z"/>
<path d="M5136 638 c3 -5 10 -6 15 -3 13 9 11 12 -6 12 -8 0 -12 -4 -9 -9z"/>
<path d="M5320 640 c-9 -6 -10 -10 -3 -10 6 0 15 5 18 10 8 12 4 12 -15 0z"/>
<path d="M5439 633 c-13 -16 -12 -17 4 -4 16 13 21 21 13 21 -2 0 -10 -8 -17
-17z"/>
<path d="M5873 631 c0 -11 5 -18 9 -15 4 3 5 11 1 19 -7 21 -12 19 -10 -4z"/>
<path d="M6006 638 c3 -5 10 -6 15 -3 13 9 11 12 -6 12 -8 0 -12 -4 -9 -9z"/>
<path d="M1850 626 c0 -2 7 -7 16 -10 8 -3 12 -2 9 4 -6 10 -25 14 -25 6z"/>
<path d="M2825 620 c-3 -6 1 -7 9 -4 18 7 21 14 7 14 -6 0 -13 -4 -16 -10z"/>
<path d="M3110 616 c7 -7 13 -7 20 0 6 6 3 10 -10 10 -13 0 -16 -4 -10 -10z"/>
<path d="M4185 620 c-3 -6 1 -7 9 -4 18 7 21 14 7 14 -6 0 -13 -4 -16 -10z"/>
<path d="M4745 620 c-3 -6 1 -7 9 -4 18 7 21 14 7 14 -6 0 -13 -4 -16 -10z"/>
<path d="M5030 616 c7 -7 13 -7 20 0 6 6 3 10 -10 10 -13 0 -16 -4 -10 -10z"/>
<path d="M5385 620 c-3 -6 1 -7 9 -4 18 7 21 14 7 14 -6 0 -13 -4 -16 -10z"/>
<path d="M5680 620 c-9 -6 -10 -10 -3 -10 6 0 15 5 18 10 8 12 4 12 -15 0z"/>
<path d="M6470 626 c0 -2 7 -7 16 -10 8 -3 12 -2 9 4 -6 10 -25 14 -25 6z"/>
<path d="M6536 622 c-3 -5 1 -9 9 -9 8 0 12 4 9 9 -3 4 -7 8 -9 8 -2 0 -6 -4
-9 -8z"/>
<path d="M2753 605 c0 -8 4 -12 9 -9 5 3 6 10 3 15 -9 13 -12 11 -12 -6z"/>
<path d="M4389 603 c-13 -16 -12 -17 4 -4 9 7 17 15 17 17 0 8 -8 3 -21 -13z"/>
<path d="M4673 605 c0 -8 4 -12 9 -9 5 3 6 10 3 15 -9 13 -12 11 -12 -6z"/>
<path d="M5313 605 c0 -8 4 -12 9 -9 5 3 6 10 3 15 -9 13 -12 11 -12 -6z"/>
<path d="M2036 602 c-3 -5 1 -9 9 -9 8 0 12 4 9 9 -3 4 -7 8 -9 8 -2 0 -6 -4
-9 -8z"/>
<path d="M2090 600 c0 -5 5 -10 11 -10 5 0 7 5 4 10 -3 6 -8 10 -11 10 -2 0
-4 -4 -4 -10z"/>
<path d="M2580 606 c0 -2 8 -10 18 -17 15 -13 16 -12 3 4 -13 16 -21 21 -21
13z"/>
<path d="M2686 598 c3 -5 10 -6 15 -3 13 9 11 12 -6 12 -8 0 -12 -4 -9 -9z"/>
<path d="M2870 602 c0 -5 7 -9 15 -9 8 0 12 4 9 9 -3 4 -9 8 -15 8 -5 0 -9 -4
-9 -8z"/>
<path d="M3060 606 c0 -2 8 -10 18 -17 15 -13 16 -12 3 4 -13 16 -21 21 -21
13z"/>
<path d="M3620 606 c0 -2 8 -10 18 -17 15 -13 16 -12 3 4 -13 16 -21 21 -21
13z"/>
<path d="M3693 591 c0 -11 5 -18 9 -15 4 3 5 11 1 19 -7 21 -12 19 -10 -4z"/>
<path d="M3737 595 c-4 -8 -3 -16 1 -19 4 -3 9 4 9 15 2 23 -3 25 -10 4z"/>
<path d="M4500 606 c0 -2 8 -10 18 -17 15 -13 16 -12 3 4 -13 16 -21 21 -21
13z"/>
<path d="M4606 598 c3 -5 10 -6 15 -3 13 9 11 12 -6 12 -8 0 -12 -4 -9 -9z"/>
<path d="M4790 602 c0 -5 7 -9 15 -9 8 0 12 4 9 9 -3 4 -9 8 -15 8 -5 0 -9 -4
-9 -8z"/>
<path d="M4980 606 c0 -2 8 -10 18 -17 15 -13 16 -12 3 4 -13 16 -21 21 -21
13z"/>
<path d="M5140 606 c0 -2 8 -10 18 -17 15 -13 16 -12 3 4 -13 16 -21 21 -21
13z"/>
<path d="M5246 598 c3 -5 10 -6 15 -3 13 9 11 12 -6 12 -8 0 -12 -4 -9 -9z"/>
<path d="M5430 602 c0 -5 7 -9 15 -9 8 0 12 4 9 9 -3 4 -9 8 -15 8 -5 0 -9 -4
-9 -8z"/>
<path d="M5620 606 c0 -2 8 -10 18 -17 15 -13 16 -12 3 4 -13 16 -21 21 -21
13z"/>
<path d="M5756 598 c3 -5 10 -6 15 -3 13 9 11 12 -6 12 -8 0 -12 -4 -9 -9z"/>
<path d="M5920 600 c-9 -6 -10 -10 -3 -10 6 0 15 5 18 10 8 12 4 12 -15 0z"/>
<path d="M6067 599 c7 -7 15 -10 18 -7 3 3 -2 9 -12 12 -14 6 -15 5 -6 -5z"/>
<path d="M6253 591 c0 -11 5 -18 9 -15 4 3 5 11 1 19 -7 21 -12 19 -10 -4z"/>
<path d="M6716 602 c-3 -5 1 -9 9 -9 8 0 12 4 9 9 -3 4 -7 8 -9 8 -2 0 -6 -4
-9 -8z"/>
<path d="M1516 587 c3 -10 9 -15 12 -12 3 3 0 11 -7 18 -10 9 -11 8 -5 -6z"/>
<path d="M2175 581 c-3 -5 -2 -12 3 -15 5 -3 9 1 9 9 0 17 -3 19 -12 6z"/>
<path d="M2254 582 c4 -3 14 -7 22 -8 9 -1 13 0 10 4 -4 3 -14 7 -22 8 -9 1
-13 0 -10 -4z"/>
<path d="M2486 582 c-3 -5 1 -9 9 -9 8 0 12 4 9 9 -3 4 -7 8 -9 8 -2 0 -6 -4
-9 -8z"/>
<path d="M2650 579 c0 -5 5 -7 10 -4 6 3 10 8 10 11 0 2 -4 4 -10 4 -5 0 -10
-5 -10 -11z"/>
<path d="M3130 579 c0 -5 5 -7 10 -4 6 3 10 8 10 11 0 2 -4 4 -10 4 -5 0 -10
-5 -10 -11z"/>
<path d="M3394 582 c4 -3 14 -7 22 -8 9 -1 13 0 10 4 -4 3 -14 7 -22 8 -9 1
-13 0 -10 -4z"/>
<path d="M3794 582 c4 -3 14 -7 22 -8 9 -1 13 0 10 4 -4 3 -14 7 -22 8 -9 1
-13 0 -10 -4z"/>
<path d="M3975 580 c3 -5 8 -10 11 -10 2 0 4 5 4 10 0 6 -5 10 -11 10 -5 0 -7
-4 -4 -10z"/>
<path d="M4255 579 c-3 -4 2 -6 10 -5 21 3 28 13 10 13 -9 0 -18 -4 -20 -8z"/>
<path d="M4570 579 c0 -5 5 -7 10 -4 6 3 10 8 10 11 0 2 -4 4 -10 4 -5 0 -10
-5 -10 -11z"/>
<path d="M5050 579 c0 -5 5 -7 10 -4 6 3 10 8 10 11 0 2 -4 4 -10 4 -5 0 -10
-5 -10 -11z"/>
<path d="M5210 579 c0 -5 5 -7 10 -4 6 3 10 8 10 11 0 2 -4 4 -10 4 -5 0 -10
-5 -10 -11z"/>
<path d="M5690 579 c0 -5 5 -7 10 -4 6 3 10 8 10 11 0 2 -4 4 -10 4 -5 0 -10
-5 -10 -11z"/>
<path d="M6150 585 c0 -7 30 -13 34 -7 3 4 -4 9 -15 9 -10 1 -19 0 -19 -2z"/>
<path d="M6335 581 c-3 -5 -2 -12 3 -15 5 -3 9 1 9 9 0 17 -3 19 -12 6z"/>
<path d="M2875 571 c-3 -5 -2 -12 3 -15 5 -3 9 1 9 9 0 17 -3 19 -12 6z"/>
<path d="M4795 571 c-3 -5 -2 -12 3 -15 5 -3 9 1 9 9 0 17 -3 19 -12 6z"/>
<path d="M5435 571 c-3 -5 -2 -12 3 -15 5 -3 9 1 9 9 0 17 -3 19 -12 6z"/>
<path d="M2026 558 c3 -5 10 -6 15 -3 13 9 11 12 -6 12 -8 0 -12 -4 -9 -9z"/>
<path d="M2576 562 c-3 -5 1 -9 9 -9 8 0 12 4 9 9 -3 4 -7 8 -9 8 -2 0 -6 -4
-9 -8z"/>
<path d="M2755 560 c3 -5 8 -10 11 -10 2 0 4 5 4 10 0 6 -5 10 -11 10 -5 0 -7
-4 -4 -10z"/>
<path d="M4496 562 c-3 -5 1 -9 9 -9 8 0 12 4 9 9 -3 4 -7 8 -9 8 -2 0 -6 -4
-9 -8z"/>
<path d="M4675 560 c3 -5 8 -10 11 -10 2 0 4 5 4 10 0 6 -5 10 -11 10 -5 0 -7
-4 -4 -10z"/>
<path d="M5136 562 c-3 -5 1 -9 9 -9 8 0 12 4 9 9 -3 4 -7 8 -9 8 -2 0 -6 -4
-9 -8z"/>
<path d="M5315 560 c3 -5 8 -10 11 -10 2 0 4 5 4 10 0 6 -5 10 -11 10 -5 0 -7
-4 -4 -10z"/>
<path d="M2993 515 c0 -8 4 -12 9 -9 5 3 6 10 3 15 -9 13 -12 11 -12 -6z"/>
<path d="M4913 515 c0 -8 4 -12 9 -9 5 3 6 10 3 15 -9 13 -12 11 -12 -6z"/>
<path d="M5553 515 c0 -8 4 -12 9 -9 5 3 6 10 3 15 -9 13 -12 11 -12 -6z"/>
<path d="M4020 480 c-9 -6 -10 -10 -3 -10 6 0 15 5 18 10 8 12 4 12 -15 0z"/>
</g>
</svg>
